<?xml version="1.0" encoding="UTF-8" standalone="no"?>
<!-- Created with Inkscape (http://www.inkscape.org/) -->

<svg
   xmlns:dc="http://purl.org/dc/elements/1.1/"
   xmlns:cc="http://creativecommons.org/ns#"
   xmlns:rdf="http://www.w3.org/1999/02/22-rdf-syntax-ns#"
   xmlns:svg="http://www.w3.org/2000/svg"
   xmlns="http://www.w3.org/2000/svg"
   xmlns:sodipodi="http://sodipodi.sourceforge.net/DTD/sodipodi-0.dtd"
   xmlns:inkscape="http://www.inkscape.org/namespaces/inkscape"
   width="200"
   height="150"
   viewBox="0 0 52.916666 39.6875"
   version="1.1"
   id="svg6936"
   inkscape:version="0.92.4 (5da689c313, 2019-01-14)"
   sodipodi:docname="dashboard_ping.svg">
  <defs
     id="defs6930" />
  <sodipodi:namedview
     id="base"
     pagecolor="#ffffff"
     bordercolor="#666666"
     borderopacity="1.0"
     inkscape:pageopacity="0.0"
     inkscape:pageshadow="2"
     inkscape:zoom="1.979899"
     inkscape:cx="178.99001"
     inkscape:cy="90.497689"
     inkscape:document-units="mm"
     inkscape:current-layer="layer1"
     showgrid="false"
     inkscape:window-width="1366"
     inkscape:window-height="715"
     inkscape:window-x="-8"
     inkscape:window-y="-8"
     inkscape:window-maximized="1"
     units="px" />
  <metadata
     id="metadata6933">
    <rdf:RDF>
      <cc:Work
         rdf:about="">
        <dc:format>image/svg+xml</dc:format>
        <dc:type
           rdf:resource="http://purl.org/dc/dcmitype/StillImage" />
        <dc:title></dc:title>
      </cc:Work>
    </rdf:RDF>
  </metadata>
  <g
     inkscape:label="Layer 1"
     inkscape:groupmode="layer"
     id="layer1"
     transform="translate(0,-257.3125)">
    <flowRoot
       xml:space="preserve"
       id="flowRoot8031"
       style="font-style:normal;font-weight:normal;font-size:64px;line-height:1.25;font-family:sans-serif;letter-spacing:0px;word-spacing:0px;fill:#000000;fill-opacity:1;stroke:none"
       transform="scale(0.26458333)"><flowRegion
         id="flowRegion8033"
         style="font-size:64px"><rect
           id="rect8035"
           width="57.857143"
           height="41.42857"
           x="344.28571"
           y="371.09113"
           style="font-size:64px" /></flowRegion><flowPara
         id="flowPara8037">TVt</flowPara></flowRoot>    <g
       id="g9437"
       transform="matrix(0.18067844,0,0,0.18067844,8.3913899,241.97934)"
       style="stroke-width:5.53469467">
      <g
         style="stroke-width:5.37061739"
         transform="matrix(1.0305508,0,0,1.0305508,0.84170814,-13.359338)"
         id="g8233">
        <g
           id="g8221"
           transform="matrix(1.13429,0,0,1.13429,-11.93439,-16.198783)"
           style="stroke-width:4.73478413">
          <rect
             y="246.65175"
             x="19.784447"
             height="21.485931"
             width="90.635147"
             id="rect8205"
             style="opacity:1;fill:#ffffff;fill-opacity:1;fill-rule:nonzero;stroke:#3f51b5;stroke-width:0.06263723;stroke-linecap:butt;stroke-linejoin:round;stroke-miterlimit:4;stroke-dasharray:none;stroke-opacity:1;paint-order:markers fill stroke" />
          <g
             style="stroke-width:2.0509913"
             transform="matrix(2.3085298,0,0,2.3085389,-299.25325,73.172541)"
             id="g8083">
            <g
               style="stroke-width:2.0509913"
               id="g8064">
              <g
                 style="stroke-width:5.00087261"
                 transform="matrix(0.41012673,0,0,0.41012673,95.434661,36.991755)"
                 id="g8029">
                <path
                   style="fill:#3f51b5;fill-opacity:1;stroke-width:1.32314742"
                   id="path6373"
                   d="m 108.44239,116.53648 c -3.04853,0 -5.52185,-2.74003 -5.52185,-6.11849 V 97.041185 c 0,-1.53379 0.51117,-2.93581 1.35175,-4.00896 0.0111,-0.0167 9.28688,-11.69644 10.46136,-13.34479 2.1299,-2.9935 3.18691,-2.87602 5.46894,-2.87602 l 33.13933,-0.003 h 0.11509 0.11562 l 33.14118,0.003 c 2.28203,0 3.33904,-0.11774 5.4692,2.87602 1.17423,1.64835 10.44972,13.32838 10.46136,13.34479 0.84032,1.07288 1.35176,2.47491 1.35176,4.00896 v 13.376805 c 0,3.37846 -2.47386,6.11849 -5.52238,6.11849 h -44.90138 -0.23019 z m 0,-2.41777 h 90.03136 c 1.77561,0 3.21944,-1.71106 3.21944,-3.81608 V 96.925825 c 0,-2.10423 -1.44436,-3.8174 -3.21944,-3.8174 h -90.03136 c -1.77562,0 -3.21892,1.71344 -3.21892,3.8174 v 13.376805 c 0,2.10502 1.44357,3.81608 3.21892,3.81608 z"
                   inkscape:connector-curvature="0" />
                <path
                   style="fill:#3f51b5;fill-opacity:1;stroke-width:1.32314742"
                   id="path6375"
                   d="m 194.1793,103.42822 c 0,1.86505 -1.51316,3.37582 -3.3782,3.37582 -1.86585,0 -3.37609,-1.51077 -3.37609,-3.37582 0,-1.86557 1.51024,-3.37846 3.37609,-3.37846 1.86531,0 3.3782,1.51289 3.3782,3.37846 z"
                   inkscape:connector-curvature="0" />
              </g>
            </g>
            <text
               xml:space="preserve"
               style="font-style:normal;font-weight:normal;font-size:6.1643877px;line-height:1.25;font-family:sans-serif;letter-spacing:0px;word-spacing:0px;fill:#3f51b5;fill-opacity:1;stroke:none;stroke-width:0.54265809"
               x="141.91751"
               y="81.810112"
               id="text8041-8"><tspan
                 sodipodi:role="line"
                 id="tspan8039-9"
                 x="141.91751"
                 y="87.434067"
                 style="fill:#3f51b5;fill-opacity:1;stroke-width:0.54265809" /></text>
          </g>
        </g>
        <path
           inkscape:connector-curvature="0"
           d="m 164.57502,238.99122 c 11.62633,-13.10264 18.70858,-30.32728 18.70858,-49.18167 0,-19.61688 -7.66561,-37.46585 -20.14141,-50.74758 0,0 0,-0.003 0,-0.003 -0.0108,-0.0193 -0.0251,-0.0193 -0.0329,-0.029 -12.99558,-13.81387 -31.20267,-22.65645 -51.45409,-23.34981 l -0.003,-0.003 -1.44563,-0.0388 c -0.37358,-0.0108 -0.74714,-0.0291 -1.12325,-0.0291 -0.37606,0 -0.74963,0.0108 -1.12321,0.0291 l -1.44049,0.0388 -0.003,0.003 c -20.251345,0.69337 -38.458429,9.53594 -51.453632,23.34994 -0.01072,0.0108 -0.02514,0.0193 -0.03288,0.029 0,0 0,0.003 -0.0026,0.005 -12.47836,13.27971 -20.143961,31.12867 -20.143961,50.74555 0,18.85438 7.082236,36.07902 18.708582,49.18168 0.01547,0.0193 0.01547,0.0484 0.03288,0.0677 0.04641,0.0677 0.112557,0.0967 0.161205,0.15377 13.064277,14.60454 31.808673,24.01263 52.727806,24.72902 l 0.003,0.003 1.4405,0.0388 c 0.3761,0.0108 0.74965,0.0193 1.12579,0.0193 0.37608,0 0.74966,-0.0108 1.12323,-0.029 l 1.44051,-0.0387 0.003,-0.003 c 20.94225,-0.71849 39.70712,-10.14487 52.7714,-24.78017 0.0329,-0.0388 0.0871,-0.058 0.11766,-0.10254 0.0203,-0.0193 0.0203,-0.0484 0.0357,-0.0677 z M 40.065297,192.36814 h 30.711046 c 0.289138,10.84597 2.407653,21.38491 6.179036,31.25854 -7.276684,2.63285 -14.23356,6.16379 -20.752907,10.56969 C 46.615343,222.79261 40.648659,208.25711 40.065297,192.36814 Z M 57.599471,143.8133 c 6.365839,4.13989 13.143608,7.45585 20.213055,9.93252 -4.329168,10.50827 -6.724031,21.83778 -7.036183,33.50506 H 40.065297 c 0.611455,-16.64886 7.130858,-31.80869 17.534174,-43.43758 z m 120.502939,43.43758 h -30.71105 c -0.31215,-11.66728 -2.707,-22.99679 -7.03619,-33.50506 7.06946,-2.47667 13.84723,-5.79263 20.21306,-9.93252 10.40333,11.62889 16.92267,26.78872 17.53418,43.43758 z m -71.57722,-33.35663 c -7.396964,-0.20984 -14.658239,-1.31255 -21.673927,-3.28269 5.186277,-10.63875 12.508972,-20.24121 21.673927,-28.23684 z m 0,5.11727 v 28.23936 H 75.893562 c 0.314673,-11.12478 2.648168,-21.91448 6.821265,-31.91865 7.691149,2.22853 15.676545,3.4618 23.810363,3.67929 z m 5.11723,0 c 8.13382,-0.21758 16.11927,-1.44823 23.81301,-3.67929 4.1731,10.00417 6.50656,20.79387 6.82126,31.91865 h -30.63427 z m 0,-5.11727 v -31.51953 c 9.16494,7.99563 16.4877,17.59809 21.67401,28.23684 -7.01571,1.97014 -14.27707,3.07285 -21.67401,3.28269 z m 26.63261,-4.83835 c -4.91509,-10.29845 -11.73637,-19.68081 -20.18236,-27.72259 14.98325,1.95989 28.46458,8.73513 38.84744,18.72393 -5.89505,3.74068 -12.14829,6.74961 -18.66508,8.99866 z m -58.38236,0 c -6.516781,-2.24905 -12.77003,-5.25798 -18.662524,-8.99866 10.380303,-9.9888 23.864183,-16.76404 38.847334,-18.72393 -8.448482,8.04178 -15.269722,17.42414 -20.18481,27.72259 z m -3.999108,43.31224 h 30.631628 v 25.68338 c -8.461328,0.22533 -16.751179,1.54542 -24.718673,3.9428 -3.599966,-9.3517 -5.623831,-19.34311 -5.912955,-29.62618 z m 30.631628,30.80055 v 34.0757 c -9.809719,-8.55864 -17.50086,-18.95677 -22.730631,-30.49099 7.335498,-2.1621 14.955,-3.36462 22.730631,-3.58471 z m 5.11723,34.0757 v -34.0757 c 7.77561,0.21759 15.39518,1.42261 22.73072,3.5821 -5.2298,11.53683 -12.92101,21.93496 -22.73072,30.4936 z m 0,-39.19287 v -25.68338 h 30.63173 c -0.28915,10.28307 -2.31299,20.27448 -5.91552,29.6287 -7.96497,-2.3999 -16.25488,-3.72019 -24.71621,-3.94532 z m 35.74894,-25.68338 h 30.71105 c -0.5834,15.88897 -6.5475,30.42447 -16.13718,41.82823 -6.51935,-4.4059 -13.47621,-7.93684 -20.75291,-10.56969 3.77395,-9.87363 5.88992,-20.41257 6.17904,-31.25854 z m -87.711728,45.66098 c 6.053678,-4.0221 12.498825,-7.25615 19.233095,-9.67412 4.976496,11.15563 12.120105,21.321 21.162183,29.93071 -15.737924,-2.0597 -29.823087,-9.42849 -40.395278,-20.25659 z m 58.413038,20.25659 c 9.04216,-8.60719 16.1858,-18.77258 21.1623,-29.93071 6.73428,2.41797 13.17687,5.65202 19.23312,9.67412 -10.57221,10.8281 -24.65736,18.19689 -40.39542,20.25659 z"
           id="path2"
           style="fill:#3f51b5;fill-opacity:1;stroke-width:1.42097592" />
      </g>
      <rect
         y="268.2738"
         x="23.056549"
         height="3.4017856"
         width="69.925591"
         id="rect9423"
         style="opacity:1;fill:#3f51b5;fill-opacity:1;fill-rule:nonzero;stroke:none;stroke-width:0.07321941;stroke-linecap:butt;stroke-linejoin:round;stroke-miterlimit:4;stroke-dasharray:none;stroke-opacity:1;paint-order:markers fill stroke" />
    </g>
  </g>
</svg>
