<?xml version="1.0" encoding="UTF-8" standalone="no"?>
<svg
   xmlns:dc="http://purl.org/dc/elements/1.1/"
   xmlns:cc="http://creativecommons.org/ns#"
   xmlns:rdf="http://www.w3.org/1999/02/22-rdf-syntax-ns#"
   xmlns:svg="http://www.w3.org/2000/svg"
   xmlns="http://www.w3.org/2000/svg"
   xmlns:sodipodi="http://sodipodi.sourceforge.net/DTD/sodipodi-0.dtd"
   xmlns:inkscape="http://www.inkscape.org/namespaces/inkscape"
   viewBox="0 0 300 200"
   enable-background="new 0 0 160 297"
   version="1.1"
   id="svg8"
   sodipodi:docname="reports.svg"
   inkscape:version="0.92.4 (5da689c313, 2019-01-14)"
   width="300"
   height="200">
  <metadata
     id="metadata14">
    <rdf:RDF>
      <cc:Work
         rdf:about="">
        <dc:format>image/svg+xml</dc:format>
        <dc:type
           rdf:resource="http://purl.org/dc/dcmitype/StillImage" />
        <dc:title></dc:title>
      </cc:Work>
    </rdf:RDF>
  </metadata>
  <defs
     id="defs12" />
  <sodipodi:namedview
     pagecolor="#ffffff"
     bordercolor="#666666"
     borderopacity="1"
     objecttolerance="10"
     gridtolerance="10"
     guidetolerance="10"
     inkscape:pageopacity="0"
     inkscape:pageshadow="2"
     inkscape:window-width="1920"
     inkscape:window-height="1027"
     id="namedview10"
     showgrid="false"
     inkscape:zoom="2.2475044"
     inkscape:cx="178.7422"
     inkscape:cy="102.54414"
     inkscape:window-x="1358"
     inkscape:window-y="-7"
     inkscape:window-maximized="1"
     inkscape:current-layer="svg8" />
  <g
     id="g870"
     transform="translate(-6,2)">
    <path
       inkscape:connector-curvature="0"
       style="fill:#ffffff;fill-opacity:1;stroke:#3f51b5;stroke-width:1.79999995;stroke-miterlimit:4;stroke-dasharray:none;stroke-opacity:1"
       id="path2"
       d="M 131.71594,158.56067 V 24.783174 L 49.896202,42.654215 V 176.43171 Z" />
    <path
       inkscape:connector-curvature="0"
       style="fill:#3f51b5;fill-opacity:1;stroke-width:1"
       id="path4"
       d="m 97.828822,69.716076 v 29.104265 l -16.82419,3.523149 c 0.51138,16.23712 7.72174,29.15533 16.5685,29.15533 9.153578,0 16.619628,-13.8373 16.619628,-30.89137 0,-16.900903 -7.31264,-30.636074 -16.363938,-30.891374" />
    <path
       inkscape:connector-curvature="0"
       style="fill:#ffffff;fill-opacity:0;stroke:#3f51b5;stroke-width:1.39999986;stroke-miterlimit:4;stroke-dasharray:none;stroke-opacity:1"
       id="path6"
       d="M 97.828822,99.330942 V 69.716076 c -0.10228,0 -0.15342,0 -0.25569,0 -9.15358,0 -16.61964,13.837291 -16.61964,30.891374 0,0.86802 0,1.73604 0.0511,2.553 l 16.82419,-3.829508" />
  </g>
  <g
     id="g876"
     transform="translate(0,2)">
    <path
       inkscape:connector-curvature="0"
       style="fill:#ffffff;fill-opacity:1;stroke:#3f51b5;stroke-width:2;stroke-miterlimit:4;stroke-dasharray:none;stroke-opacity:1"
       id="path2-0"
       d="M 191.00325,158.95925 V 25.18175 l -81.81974,17.87104 v 133.7775 z" />
    <path
       inkscape:connector-curvature="0"
       style="fill:#3f51b5;fill-opacity:1;stroke-width:1"
       id="path4-0"
       d="m 134.75218,131.89739 9.71609,-2.0424 v -26.55126 l -9.71609,2.0424 z" />
    <path
       inkscape:connector-curvature="0"
       style="fill:#3f51b5;fill-opacity:1;stroke-width:1"
       id="path6-2"
       d="m 146.51376,129.34438 9.7161,-2.0424 V 93.602304 l -9.7161,2.042404 z" />
    <path
       inkscape:connector-curvature="0"
       style="fill:#3f51b5;fill-opacity:1;stroke-width:1"
       id="path8"
       d="m 158.27535,126.79138 9.71609,-2.04241 V 70.114651 l -9.71609,2.042405 z" />
  </g>
  <g
     id="g887"
     transform="translate(6,2)">
    <path
       inkscape:connector-curvature="0"
       style="fill:#ffffff;fill-opacity:1;stroke:#3f51b5;stroke-width:2;stroke-miterlimit:4;stroke-dasharray:none;stroke-opacity:1"
       id="path2-2"
       d="M 251.07101,158.50487 V 24.727376 L 169.25127,42.598417 V 176.37591 Z" />
    <path
       inkscape:connector-curvature="0"
       style="fill:#3f51b5;fill-opacity:1;stroke-width:0;stroke-miterlimit:4;stroke-dasharray:none"
       id="path4-9"
       d="m 194.81994,131.44302 33.23927,-7.60796 V 82.323186 81.301983 l -9.71609,-9.599301 -23.52318,5.565552 z" />
    <g
       transform="matrix(0.51137336,0,0,0.51060115,169.25127,24.727376)"
       style="fill:#ffffff;stroke-width:1.95699656"
       id="g18">
      <path
         inkscape:connector-curvature="0"
         style="fill:#ffffff;stroke-width:1.95699656"
         id="path6-0"
         d="m 96,92 v 23 l 19,-4 z" />
      <path
         inkscape:connector-curvature="0"
         style="fill:#ffffff;stroke-width:1.95699656"
         id="path8-5"
         d="m 58,139 v 4 l 49,-11 v -4 z" />
      <path
         inkscape:connector-curvature="0"
         style="fill:#ffffff;stroke-width:1.95699656"
         id="path10"
         d="m 58,152 v 4 l 49,-11 v -4 z" />
      <path
         inkscape:connector-curvature="0"
         style="fill:#ffffff;stroke-width:1.95699656"
         id="path12"
         d="m 58,164 v 4 l 49,-11 v -4 z" />
      <path
         inkscape:connector-curvature="0"
         style="fill:#ffffff;stroke-width:1.95699656"
         id="path14"
         d="m 58,176 v 4 l 49,-11 v -4 z" />
      <path
         inkscape:connector-curvature="0"
         style="fill:#ffffff;stroke-width:1.95699656"
         id="path16"
         d="m 58,188 v 4 l 49,-11 v -4 z" />
    </g>
  </g>
</svg>
