<?xml version="1.0" encoding="UTF-8" standalone="no"?>
<svg
   xmlns:dc="http://purl.org/dc/elements/1.1/"
   xmlns:cc="http://creativecommons.org/ns#"
   xmlns:rdf="http://www.w3.org/1999/02/22-rdf-syntax-ns#"
   xmlns:svg="http://www.w3.org/2000/svg"
   xmlns="http://www.w3.org/2000/svg"
   xmlns:sodipodi="http://sodipodi.sourceforge.net/DTD/sodipodi-0.dtd"
   xmlns:inkscape="http://www.inkscape.org/namespaces/inkscape"
   height="200"
   width="300"
   version="1.1"
   x="0px"
   y="0px"
   viewBox="0 0 68 66.666667"
   enable-background="new 0 0 68 100"
   xml:space="preserve"
   id="svg4"
   sodipodi:docname="users.svg"
   style="fill:#000000"
   inkscape:version="0.92.4 (5da689c313, 2019-01-14)"><metadata
     id="metadata10"><rdf:RDF><cc:Work
         rdf:about=""><dc:format>image/svg+xml</dc:format><dc:type
           rdf:resource="http://purl.org/dc/dcmitype/StillImage" /><dc:title></dc:title></cc:Work></rdf:RDF></metadata><defs
     id="defs8" /><sodipodi:namedview
     pagecolor="#ffffff"
     bordercolor="#666666"
     borderopacity="1"
     objecttolerance="10"
     gridtolerance="10"
     guidetolerance="10"
     inkscape:pageopacity="0"
     inkscape:pageshadow="2"
     inkscape:window-width="1920"
     inkscape:window-height="1027"
     id="namedview6"
     showgrid="false"
     inkscape:zoom="0.78666667"
     inkscape:cx="122.24072"
     inkscape:cy="417.96541"
     inkscape:window-x="1358"
     inkscape:window-y="-7"
     inkscape:window-maximized="1"
     inkscape:current-layer="svg4" /><g
     id="g1903"
     style="stroke:#ececec;stroke-width:0.57950044;stroke-miterlimit:4;stroke-dasharray:none;stroke-opacity:1"
     transform="matrix(0.65275177,0,0,0.65165757,123.4303,-106.23832)"><path
       d="m -80.456015,248.73497 c 0,0 0,2.1246 -2.12435,2.1246 -2.12435,0 -106.217485,0 -106.217485,0 0,0 -2.12435,0 -2.12435,-2.1246 0,-2.1246 0,-57.71818 0,-57.71818 h 110.466185 v 57.71818"
       id="path1745"
       style="fill:none;stroke:#ececec;stroke-width:0.57950044;stroke-linecap:butt;stroke-linejoin:miter;stroke-miterlimit:4;stroke-dasharray:none;stroke-opacity:1;paint-order:normal"
       inkscape:connector-curvature="0" /><path
       d="M -82.580365,191.37089 H -188.79785 c -1.1684,0 -2.12435,-0.95607 -2.12435,-2.12459 v -9.91478 c 0,-1.16853 0.95595,-2.1246 2.12435,-2.1246 h 106.217485 c 1.168392,0 2.12435,0.95607 2.12435,2.1246 v 9.91478 c 0,1.16852 -0.955958,2.12459 -2.12435,2.12459"
       id="path1747"
       style="fill:none;fill-opacity:1;stroke:#ececec;stroke-width:0.57950044;stroke-miterlimit:4;stroke-dasharray:none;stroke-opacity:1"
       inkscape:connector-curvature="0" /></g><path
     d="m 70.901119,55.859033 c 0,0 0,1.382747 -1.384307,1.382747 -1.384312,0 -69.21550058,0 -69.21550058,0 0,0 -1.38430652,0 -1.38430652,-1.382747 0,-1.382746 0,-37.564618 0,-37.564618 H 70.901119 v 37.564618"
     id="path2-60"
     style="fill:#ffffff;stroke:#3f51b5;stroke-width:0.16666666;stroke-miterlimit:4;stroke-dasharray:none;stroke-opacity:1"
     inkscape:connector-curvature="0" /><path
     d="M 69.516812,18.524872 H 0.30131142 c -0.76137,0 -1.38430652,-0.622236 -1.38430652,-1.382746 v -6.452819 c 0,-0.760511 0.62293652,-1.382747 1.38430652,-1.382747 H 69.516812 c 0.761371,0 1.384307,0.622236 1.384307,1.382747 v 6.452819 c 0,0.76051 -0.622936,1.382746 -1.384307,1.382746"
     id="path4"
     style="fill:#3f51b5;fill-opacity:1;stroke:#3f51b5;stroke-width:0.16666666;stroke-miterlimit:4;stroke-dasharray:none;stroke-opacity:1"
     inkscape:connector-curvature="0" /><path
     d="m 16.220876,11.150223 c 0,0 0.23072,-0.230458 0.461439,-0.230458 0.230715,0 13.61238,0 13.61238,0 0,0 0.23072,0 0.461434,0.230458 0.230719,0.230457 1.384312,3.226409 1.384312,3.226409 H 14.836564 l 1.384312,-3.226409"
     id="path6"
     style="fill:#f9f9f9;stroke-width:0.33333331"
     inkscape:connector-curvature="0" /><path
     d="m 70.901119,13.685259 v 4.609156 0.460915 H -1.0829951 v -5.070071 h 0.69215342 l 0.9228731,-2.535036 c 0,0 0.230719,-0.230458 0.461434,-0.230458 0.23071898,0 13.61238458,0 13.61238458,0 0,0 0.230714,0 0.461434,0.230458 l 1.153592,2.535036 z"
     id="path8"
     style="fill:#ffffff;stroke:#3f51b5;stroke-width:0.16666666;stroke-miterlimit:4;stroke-dasharray:none;stroke-opacity:1"
     inkscape:connector-curvature="0" /><ellipse
     cx="68.709297"
     cy="11.495912"
     id="circle10"
     style="fill:#ffffff;stroke-width:0.33333331"
     rx="0.80751419"
     ry="0.80660224" /><ellipse
     cx="66.171394"
     cy="11.495912"
     id="circle12"
     style="fill:#ffffff;stroke-width:0.33333331"
     rx="0.80751419"
     ry="0.80660224" /><ellipse
     cx="63.633495"
     cy="11.495912"
     id="circle14"
     style="fill:#ffffff;stroke-width:0.33333331"
     rx="0.80751419"
     ry="0.80660224" /><path
     d="M 64.210289,17.833499 H 9.2993264 c -0.507582,0 -0.922873,-0.414824 -0.922873,-0.921831 v -1.152289 c 0,-0.507007 0.415291,-0.921831 0.922873,-0.921831 H 64.210289 c 0.507582,0 0.922873,0.414824 0.922873,0.921831 v 1.152289 c 0,0.507007 -0.415291,0.921831 -0.922873,0.921831"
     id="path16"
     style="fill:#ffffff;stroke:#3f51b5;stroke-width:0.33333331;stroke-opacity:1"
     inkscape:connector-curvature="0" /><path
     inkscape:connector-curvature="0"
     style="fill:#3f51b5;fill-opacity:1;stroke-width:0.33333331"
     id="path20"
     d="m 63.172057,15.759379 c 0.184576,0 0.346079,0.16132 0.346079,0.345687 0,0.184366 -0.161503,0.345687 -0.346079,0.345687 -0.184574,0 -0.346077,-0.161321 -0.346077,-0.345687 0,-0.184367 0.161503,-0.345687 0.346077,-0.345687 m 0,-0.230458 c -0.323005,0 -0.576795,0.253504 -0.576795,0.576145 0,0.322641 0.25379,0.576144 0.576795,0.576144 0.323005,0 0.576798,-0.253503 0.576798,-0.576144 0,-0.322641 -0.253793,-0.576145 -0.576798,-0.576145 z" /><path
     inkscape:connector-curvature="0"
     style="fill:#3f51b5;fill-opacity:1;stroke-width:0.33333331"
     id="path22"
     d="m 63.97957,17.142126 0.230719,-0.230458 -0.461434,-0.460915 h -0.230719 v 0.230457 z" /><path
     inkscape:connector-curvature="0"
     style="fill:#3f51b5;fill-opacity:1;stroke-width:0.33333331"
     id="path24"
     d="m 66.978908,15.759379 h 1.615031 v 0.230458 h -1.615031 z" /><path
     inkscape:connector-curvature="0"
     style="fill:#3f51b5;fill-opacity:1;stroke-width:0.33333331"
     id="path26"
     d="m 66.978908,16.220294 h 1.615031 v 0.230459 h -1.615031 z" /><path
     inkscape:connector-curvature="0"
     style="fill:#3f51b5;fill-opacity:1;stroke-width:0.33333331"
     id="path28"
     d="m 66.978908,16.68121 h 1.615031 v 0.230458 h -1.615031 z" /><path
     inkscape:connector-curvature="0"
     style="fill:#3f51b5;fill-opacity:1;stroke-width:0.33333331"
     id="path30"
     d="m 6.0692694,16.450753 0.692158,-0.691374 0.692153,0.691374 h -0.230719 v 0.460915 h -0.23072 V 16.68121 h -0.461433 v 0.230458 h -0.23072 v -0.460915 z" /><path
     inkscape:connector-curvature="0"
     style="fill:#3f51b5;fill-opacity:1;stroke-width:0.33333331"
     id="path32"
     d="m 2.1470574,16.220294 v 0.230459 h 0.922873 l -0.230714,0.230457 v 0.230458 h 0.230714 l 0.461439,-0.460915 v -0.230459 l -0.461439,-0.460915 h -0.230714 v 0.230458 l 0.230714,0.230457 z" /><path
     inkscape:connector-curvature="0"
     style="fill:#3f51b5;fill-opacity:1;stroke-width:0.33333331"
     id="path34"
     d="m 1.2241844,16.220294 v 0.230459 H 0.30131142 l 0.23072,0.230457 v 0.230458 h -0.23072 l -0.461434,-0.460915 v -0.230459 l 0.461434,-0.460915 h 0.23072 v 0.230458 l -0.23072,0.230457 z" /><path
     style="opacity:1;fill:#ffffff;fill-opacity:0.02020204;fill-rule:nonzero;stroke:#3f51b5;stroke-width:0.32933334;stroke-linecap:square;stroke-linejoin:miter;stroke-miterlimit:4;stroke-dasharray:none;stroke-opacity:1;paint-order:markers fill stroke"
     id="path935"
     sodipodi:type="arc"
     sodipodi:cx="4.7981844"
     sodipodi:cy="16.332304"
     sodipodi:rx="0.50418234"
     sodipodi:ry="0.50525892"
     sodipodi:start="1.2799537"
     sodipodi:end="5.6120829"
     sodipodi:open="true"
     d="M 4.9427635,16.816343 A 0.50418234,0.50525892 0 0 1 4.3373282,16.537219 0.50418234,0.50525892 0 0 1 4.5370878,15.900073 0.50418234,0.50525892 0 0 1 5.193028,16.018109" /><path
     inkscape:connector-curvature="0"
     style="fill:#3f51b5;fill-opacity:1;stroke-width:0.33333331"
     id="path36"
     d="m 5.6078354,15.759379 v 0.691374 h -0.692154 v -0.230459 h 0.230715 v -0.230457 h 0.230719 v -0.230458 z" /><path
     d="m 40.432941,34.318385 v -3.733267 c 0,-3.676405 -2.995022,-6.667447 -6.675751,-6.667447 -3.680739,0 -6.675763,2.991042 -6.675763,6.667447 v 3.733267 l -1.889365,0.16656 v 13.838098 l 8.565128,0.754806 8.565116,-0.754806 V 34.484945 Z m -5.668093,9.098424 H 33.75719 32.749526 l 0.577135,-2.112449 c -0.340333,-0.16178 -0.577135,-0.505216 -0.577135,-0.906773 0,-0.556039 0.451182,-1.006407 1.007664,-1.006407 0.55673,0 1.007658,0.450368 1.007658,1.006407 0,0.401557 -0.236554,0.744993 -0.576638,0.906521 z m 3.65277,-9.275803 -4.660428,-0.410866 -4.660441,0.410866 v -3.555888 c 0,-2.56659 2.090648,-4.654633 4.660441,-4.654633 2.569783,0 4.660428,2.088043 4.660428,4.654633 z"
     id="path2"
     inkscape:connector-curvature="0"
     style="fill:#3f51b5;fill-opacity:1;stroke:none;stroke-width:0.99999988;stroke-opacity:1" /></svg>