<?xml version="1.0" encoding="UTF-8" standalone="no"?>
<svg
   xmlns:dc="http://purl.org/dc/elements/1.1/"
   xmlns:cc="http://creativecommons.org/ns#"
   xmlns:rdf="http://www.w3.org/1999/02/22-rdf-syntax-ns#"
   xmlns:svg="http://www.w3.org/2000/svg"
   xmlns="http://www.w3.org/2000/svg"
   xmlns:sodipodi="http://sodipodi.sourceforge.net/DTD/sodipodi-0.dtd"
   xmlns:inkscape="http://www.inkscape.org/namespaces/inkscape"
   width="1920"
   height="1280"
   preserveAspectRatio="xMidYMid"
   viewBox="0 0 1920 1280"
   style="display:block"
   version="1.1"
   id="svg24"
   sodipodi:docname="home-background.svg"
   inkscape:version="0.92.4 (5da689c313, 2019-01-14)">
  <metadata
     id="metadata30">
    <rdf:RDF>
      <cc:Work
         rdf:about="">
        <dc:format>image/svg+xml</dc:format>
        <dc:type
           rdf:resource="http://purl.org/dc/dcmitype/StillImage" />
        <dc:title></dc:title>
      </cc:Work>
    </rdf:RDF>
  </metadata>
  <defs
     id="defs28" />
  <sodipodi:namedview
     pagecolor="#ffffff"
     bordercolor="#666666"
     borderopacity="1"
     objecttolerance="10"
     gridtolerance="10"
     guidetolerance="10"
     inkscape:pageopacity="0"
     inkscape:pageshadow="2"
     inkscape:window-width="1920"
     inkscape:window-height="1027"
     id="namedview26"
     showgrid="false"
     inkscape:zoom="0.059"
     inkscape:cx="-1290.4323"
     inkscape:cy="1966.611"
     inkscape:window-x="1358"
     inkscape:window-y="-7"
     inkscape:window-maximized="1"
     inkscape:current-layer="svg24" />
  <g
     id="g22"
     transform="translate(237.28814,-296.27119)">
    <g
       transform="matrix(100,0,0,100,1407.1085,570.96506)"
       style="opacity:0.45"
       id="g4">
      <path
         d="m 5.285,0 c 0,1.68 3.5678596,0.63285259 3.1330436,2.255608 C 7.9832276,3.8783634 5.4169443,1.1875773 4.5769443,2.6425 3.7369443,4.0974227 7.350375,4.9744962 6.1624356,6.1624356 4.9744962,7.350375 4.0974227,3.7369443 2.6425,4.5769443 1.1875773,5.4169443 3.8783634,7.9832276 2.255608,8.4180436 0.63285259,8.8528596 1.68,5.285 0,5.285 -1.68,5.285 -0.63285259,8.8528596 -2.255608,8.4180436 -3.8783634,7.9832276 -1.1875773,5.4169443 -2.6425,4.5769443 -4.0974227,3.7369443 -4.9744962,7.350375 -6.1624356,6.1624356 -7.350375,4.9744962 -3.7369443,4.0974227 -4.5769443,2.6425 -5.4169443,1.1875773 -7.9832276,3.8783634 -8.4180436,2.255608 -8.8528596,0.63285259 -5.285,1.68 -5.285,0 c 0,-1.68 -3.5678596,-0.63285259 -3.1330436,-2.255608 0.434816,-1.6227554 3.0010993,1.0680307 3.8410993,-0.386892 0.84,-1.4549227 -2.7734307,-2.3319962 -1.5854913,-3.5199356 1.1879394,-1.1879394 2.0650129,2.4254913 3.5199356,1.5854913 1.4549227,-0.84 -1.2358634,-3.4062833 0.386892,-3.8410993 C -0.63285259,-8.8528596 -1.68,-5.285 0,-5.285 c 1.68,0 0.63285259,-3.5678596 2.255608,-3.1330436 1.6227554,0.434816 -1.0680307,3.0010993 0.386892,3.8410993 1.4549227,0.84 2.3319962,-2.7734307 3.5199356,-1.5854913 1.1879394,1.1879394 -2.4254913,2.0650129 -1.5854913,3.5199356 0.84,1.4549227 3.4062833,-1.2358634 3.8410993,0.386892 C 8.8528596,-0.63285259 5.285,-1.68 5.285,0"
         style="fill:#0735f3;stroke-width:0"
         id="path2"
         inkscape:connector-curvature="0" />
    </g>
    <g
       transform="matrix(100,0,0,100,1517.7302,485.15807)"
       style="opacity:0.45"
       id="g8">
      <path
         d="m 6.342,0 c 0,2.016 4.281431,0.75942311 3.759652,2.7067296 C 9.5798731,4.654036 6.5003331,1.4250928 5.4923331,3.171 4.4843331,4.9169072 8.82045,5.9693954 7.3949227,7.3949227 5.9693954,8.82045 4.9169072,4.4843331 3.171,5.4923331 1.4250928,6.5003331 4.654036,9.5798731 2.7067296,10.101652 0.75942311,10.623431 2.016,6.342 0,6.342 c -2.016,0 -0.75942311,4.281431 -2.7067296,3.759652 C -4.654036,9.5798731 -1.4250928,6.5003331 -3.171,5.4923331 -4.9169072,4.4843331 -5.9693954,8.82045 -7.3949227,7.3949227 -8.82045,5.9693954 -4.4843331,4.9169072 -5.4923331,3.171 -6.5003331,1.4250928 -9.5798731,4.654036 -10.101652,2.7067296 -10.623431,0.75942311 -6.342,2.016 -6.342,0 c 0,-2.016 -4.281431,-0.75942311 -3.759652,-2.7067296 0.5217789,-1.9473064 3.6013189,1.2816368 4.6093189,-0.4642704 1.008,-1.7459072 -3.3281169,-2.7983954 -1.9025896,-4.2239227 1.4255273,-1.4255273 2.4780155,2.9105896 4.2239227,1.9025896 1.7459072,-1.008 -1.483036,-4.08754 0.4642704,-4.6093189 C -0.75942311,-10.623431 -2.016,-6.342 0,-6.342 c 2.016,0 0.75942311,-4.281431 2.7067296,-3.759652 C 4.654036,-9.5798731 1.4250928,-6.5003331 3.171,-5.4923331 4.9169072,-4.4843331 5.9693954,-8.82045 7.3949227,-7.3949227 8.82045,-5.9693954 4.4843331,-4.9169072 5.4923331,-3.171 c 1.008,1.7459072 4.08754,-1.483036 4.6093189,0.4642704 C 10.623431,-0.75942311 6.342,-2.016 6.342,0"
         style="fill:#0035c2;stroke-width:0"
         id="path6"
         inkscape:connector-curvature="0" />
    </g>
    <g
       transform="matrix(100,0,0,100,1783.2223,279.2213)"
       style="opacity:0.45"
       id="g12">
      <path
         d="m 8.8788,0 c 0,2.8224 5.994004,1.0631924 5.263513,3.7894214 C 13.411822,6.5156505 9.1004664,1.9951299 7.6892664,4.4394 6.2780664,6.8836701 12.34863,8.3571536 10.352892,10.352892 8.3571536,12.34863 6.8836701,6.2780664 4.4394,7.6892664 1.9951299,9.1004664 6.5156505,13.411822 3.7894214,14.142313 1.0631924,14.872804 2.8224,8.8788 0,8.8788 c -2.8224,0 -1.0631924,5.994004 -3.7894214,5.263513 C -6.5156505,13.411822 -1.9951299,9.1004664 -4.4394,7.6892664 -6.8836701,6.2780664 -8.3571536,12.34863 -10.352892,10.352892 -12.34863,8.3571536 -6.2780664,6.8836701 -7.6892664,4.4394 -9.1004664,1.9951299 -13.411822,6.5156505 -14.142313,3.7894214 -14.872804,1.0631924 -8.8788,2.8224 -8.8788,0 c 0,-2.8224 -5.994004,-1.0631924 -5.263513,-3.7894214 0.730491,-2.7262291 5.0418466,1.7942915 6.4530466,-0.6499786 1.4112,-2.4442701 -4.6593636,-3.9177536 -2.6636256,-5.913492 1.9957384,-1.995738 3.4692219,4.0748256 5.913492,2.6636256 2.4442701,-1.4112 -2.0762505,-5.7225556 0.6499786,-6.4530466 C -1.0631924,-14.872804 -2.8224,-8.8788 0,-8.8788 c 2.8224,0 1.0631924,-5.994004 3.7894214,-5.263513 2.7262291,0.730491 -1.7942915,5.0418466 0.6499786,6.4530466 2.4442701,1.4112 3.9177536,-4.6593636 5.913492,-2.6636256 1.995738,1.9957384 -4.0748256,3.4692219 -2.6636256,5.913492 1.4112,2.4442701 5.7225556,-2.0762505 6.4530466,0.6499786 C 14.872804,-1.0631924 8.8788,-2.8224 8.8788,0"
         style="fill:#083090;stroke-width:0"
         id="path10"
         inkscape:connector-curvature="0" />
    </g>
    <g
       transform="matrix(100,0,0,100,2340.7557,-153.24591)"
       style="opacity:0.45"
       id="g16">
      <path
         d="m 14.20608,0 c 0,4.51584 9.590407,1.7011078 8.421621,6.0630742 -1.168785,4.3619668 -8.066955,-2.8708664 -10.324875,1.0399658 -2.25792,3.910832 7.454982,6.268406 4.261801,9.461587 -3.193181,3.193181 -5.550755,-6.519721 -9.461587,-4.261801 -3.9108322,2.25792 3.322001,9.15609 -1.0399658,10.324875 C 1.7011078,23.796487 4.51584,14.20608 0,14.20608 c -4.51584,0 -1.7011078,9.590407 -6.0630742,8.421621 -4.3619668,-1.168785 2.8708664,-8.066955 -1.0399658,-10.324875 -3.910832,-2.25792 -6.268406,7.454982 -9.461587,4.261801 -3.193181,-3.193181 6.519721,-5.550755 4.261801,-9.461587 -2.25792,-3.9108322 -9.15609,3.322001 -10.324875,-1.0399658 C -23.796487,1.7011078 -14.20608,4.51584 -14.20608,0 c 0,-4.51584 -9.590407,-1.7011078 -8.421621,-6.0630742 1.168785,-4.3619668 8.066955,2.8708664 10.324875,-1.0399658 2.25792,-3.910832 -7.454982,-6.268406 -4.261801,-9.461587 3.193181,-3.193181 5.550755,6.519721 9.461587,4.261801 3.9108322,-2.25792 -3.322001,-9.15609 1.0399658,-10.324875 C -1.7011078,-23.796487 -4.51584,-14.20608 0,-14.20608 c 4.51584,0 1.7011078,-9.590407 6.0630742,-8.421621 4.3619668,1.168785 -2.8708664,8.066955 1.0399658,10.324875 3.910832,2.25792 6.268406,-7.454982 9.461587,-4.261801 3.193181,3.193181 -6.519721,5.550755 -4.261801,9.461587 2.25792,3.9108322 9.15609,-3.322001 10.324875,1.0399658 C 23.796487,-1.7011078 14.20608,-4.51584 14.20608,0"
         style="fill:#19295f;stroke-width:0"
         id="path14"
         inkscape:connector-curvature="0" />
    </g>
    <g
       transform="matrix(100,0,0,100,3530.1602,-1075.8426)"
       style="opacity:0.45"
       id="g20">
      <path
         d="m 25.570944,0 c 0,8.128512 17.262732,3.061994 15.158918,10.913534 -2.103814,7.851539 -14.520519,-5.1675599 -18.584775,1.871938 -4.064256,7.039498 13.418967,11.28313 7.671241,17.030856 C 24.068602,35.564054 19.82497,18.080831 12.785472,22.145087 5.7459741,26.209343 18.765073,38.626048 10.913534,40.729862 3.061994,42.833676 8.128512,25.570944 0,25.570944 c -8.128512,0 -3.061994,17.262732 -10.913534,15.158918 -7.851539,-2.103814 5.1675599,-14.520519 -1.871938,-18.584775 -7.039498,-4.064256 -11.28313,13.418967 -17.030856,7.671241 -5.747726,-5.747726 11.735497,-9.991358 7.671241,-17.030856 -4.064256,-7.0394979 -16.480961,5.979601 -18.584775,-1.871938 C -42.833676,3.061994 -25.570944,8.128512 -25.570944,0 c 0,-8.128512 -17.262732,-3.061994 -15.158918,-10.913534 2.103814,-7.851539 14.520519,5.1675599 18.584775,-1.871938 4.064256,-7.039498 -13.418967,-11.28313 -7.671241,-17.030856 5.747726,-5.747726 9.991358,11.735497 17.030856,7.671241 7.0394979,-4.064256 -5.979601,-16.480961 1.871938,-18.584775 7.85154,-2.103814 2.785022,15.158918 10.913534,15.158918 8.128512,0 3.061994,-17.262732 10.913534,-15.158918 7.851539,2.103814 -5.1675599,14.520519 1.871938,18.584775 7.039498,4.064256 11.28313,-13.418967 17.030856,-7.671241 5.747726,5.747726 -11.735497,9.991358 -7.671241,17.030856 4.064256,7.0394979 16.480961,-5.979601 18.584775,1.871938 C 42.833676,-3.061994 25.570944,-8.128512 25.570944,0"
         style="fill:#1d2031;stroke-width:0"
         id="path18"
         inkscape:connector-curvature="0" />
    </g>
  </g>
</svg>
