<?xml version="1.0" encoding="UTF-8" standalone="no"?>
<svg
   xmlns:dc="http://purl.org/dc/elements/1.1/"
   xmlns:cc="http://creativecommons.org/ns#"
   xmlns:rdf="http://www.w3.org/1999/02/22-rdf-syntax-ns#"
   xmlns:svg="http://www.w3.org/2000/svg"
   xmlns="http://www.w3.org/2000/svg"
   xmlns:sodipodi="http://sodipodi.sourceforge.net/DTD/sodipodi-0.dtd"
   xmlns:inkscape="http://www.inkscape.org/namespaces/inkscape"
   viewBox="0 0 300.00001 99.999997"
   width="300"
   height="100"
   version="1.1"
   id="svg217"
   sodipodi:docname="search_card.svg"
   inkscape:version="0.92.4 (5da689c313, 2019-01-14)">
  <metadata
     id="metadata223">
    <rdf:RDF>
      <cc:Work
         rdf:about="">
        <dc:format>image/svg+xml</dc:format>
        <dc:type
           rdf:resource="http://purl.org/dc/dcmitype/StillImage" />
        <dc:title />
      </cc:Work>
    </rdf:RDF>
  </metadata>
  <defs
     id="defs221">
    <linearGradient
       gradientTransform="matrix(0.19377031,0,0,-0.19377031,138.49051,77.276045)"
       y2="119.227"
       x2="231.912"
       y1="180.521"
       x1="-36.183998"
       gradientUnits="userSpaceOnUse"
       id="SVGID_5_">
      <stop
         id="stop140"
         stop-color="#485f68"
         offset="0" />
      <stop
         id="stop142"
         stop-color="#253338"
         offset="1" />
    </linearGradient>
  </defs>
  <sodipodi:namedview
     pagecolor="#ffffff"
     bordercolor="#666666"
     borderopacity="1"
     objecttolerance="10"
     gridtolerance="10"
     guidetolerance="10"
     inkscape:pageopacity="0"
     inkscape:pageshadow="2"
     inkscape:window-width="1920"
     inkscape:window-height="1027"
     id="namedview219"
     showgrid="false"
     inkscape:zoom="2.654133"
     inkscape:cx="104.42162"
     inkscape:cy="21.860805"
     inkscape:window-x="1358"
     inkscape:window-y="-7"
     inkscape:window-maximized="1"
     inkscape:current-layer="svg217" />
  <style
     id="style2">.st2{fill:#223138}.st3{fill:#b3c1c6}.st4{fill:#f6f9f9}.st5{fill:#fff}.st6{opacity:.2}.st7{fill:#485f68}.st9{fill:#62e8c2}.st10{fill:#ff6e80}.st11{fill:#ff3849}.st12{fill:#f7e3a1}.st13{fill:#1ed3a3}.st14{fill:#ffd05b}.st15,.st16,.st17,.st18{fill:none;stroke:#263840;stroke-width:2.5175;stroke-miterlimit:10}.st16,.st17,.st18{stroke:#8499a0}.st17,.st18{stroke:#263840;stroke-width:1.6784}.st18{stroke:#8499a0}.st21{fill:#dd3146}.st22{fill:#f9b54c}.st26{opacity:.2;fill:#485f68}.st27{fill:#4e67b0}.st28{fill:#5c7ccc}.st32{fill:#57ad5f}</style>
  <linearGradient
     id="SVGID_1_"
     gradientUnits="userSpaceOnUse"
     x1="304.28201"
     y1="83.879997"
     x2="302.68201"
     y2="219.347"
     gradientTransform="matrix(0.24340988,0,0,0.24340988,137.96433,31.093755)">
    <stop
       offset="0"
       stop-color="#253338"
       stop-opacity="0"
       id="stop4" />
    <stop
       offset="1"
       stop-color="#253338"
       id="stop6" />
  </linearGradient>
  <linearGradient
     id="SVGID_2_"
     gradientUnits="userSpaceOnUse"
     x1="282.22"
     y1="199.508"
     x2="594.909"
     y2="128.01801"
     gradientTransform="matrix(0.20554823,0,0,-0.20554823,150.72749,77.505439)">
    <stop
       offset="0"
       stop-color="#485f68"
       id="stop11" />
    <stop
       offset="1"
       stop-color="#253338"
       id="stop13" />
  </linearGradient>
  <linearGradient
     id="SVGID_3_"
     gradientUnits="userSpaceOnUse"
     x1="387.69299"
     y1="84.932999"
     x2="601.02301"
     y2="222.15601"
     gradientTransform="matrix(0.20554823,0,0,0.20554823,150.72749,39.684561)">
    <stop
       offset="0"
       stop-color="#253338"
       stop-opacity="0"
       id="stop82" />
    <stop
       offset="1"
       stop-color="#253338"
       id="stop84" />
  </linearGradient>
  <linearGradient
     id="SVGID_6_"
     gradientUnits="userSpaceOnUse"
     x1="197.325"
     y1="79.399002"
     x2="412.44699"
     y2="217.77499"
     gradientTransform="matrix(0.24340988,0,0,0.24340988,137.96433,31.093755)">
    <stop
       offset="0"
       stop-color="#253338"
       stop-opacity="0"
       id="stop199" />
    <stop
       offset="1"
       stop-color="#253338"
       id="stop201" />
  </linearGradient>
  <linearGradient
     id="SVGID_7_"
     gradientUnits="userSpaceOnUse"
     x1="92.197998"
     y1="201.82899"
     x2="404.79901"
     y2="130.358"
     gradientTransform="matrix(0.24340988,0,0,-0.24340988,137.96433,75.881175)">
    <stop
       offset="0"
       stop-color="#485f68"
       id="stop206" />
    <stop
       offset="1"
       stop-color="#253338"
       id="stop208" />
  </linearGradient>
  <g
     id="g1012"
     transform="translate(0,-10)">
    <path
       style="opacity:0.05;fill:url(#SVGID_1_);stroke-width:0.24340989"
       inkscape:connector-curvature="0"
       id="path9"
       d="m 143.24633,80.286894 -2.72619,1.533483 34.73459,1.971619 -2.77488,1.192708 53.93964,2.701851 5.03858,-1.557824 41.62309,1.874256 9.68772,-2.263712 z" />
    <path
       style="fill:url(#SVGID_2_);stroke-width:0.20554824"
       inkscape:connector-curvature="0"
       id="path16"
       d="m 221.82663,44.042186 -0.12332,2.610462 42.44571,-1.644386 v -3.042114 z" />
    <path
       style="fill:#223138;stroke-width:0.20554824"
       inkscape:connector-curvature="0"
       id="path18"
       d="m 264.14902,41.966148 0.65775,0.924967 0.0411,2.672127 -0.69886,-0.55498 z"
       class="st2" />
    <path
       style="fill:#b3c1c6;stroke-width:0.20554824"
       inkscape:connector-curvature="0"
       id="path20"
       d="m 264.84788,45.563242 -0.69886,-0.55498 -42.42516,1.747161 -0.90441,35.374851 -0.78108,2.178812 0.65775,-0.472761 43.41179,2.322696 1.31551,-0.12333 z"
       class="st3" />
    <path
       style="fill:#f6f9f9;stroke-width:0.20554824"
       inkscape:connector-curvature="0"
       id="path22"
       d="m 221.84718,46.632093 -1.68548,34.840428 43.94621,1.582721 0.0617,-38.088089 z"
       class="st4" />
    <path
       style="fill:#f6f9f9;stroke-width:0.20554824"
       inkscape:connector-curvature="0"
       id="path24"
       d="m 221.72386,46.755423 -1.70605,37.533108 44.06955,1.849935 0.0617,-40.986321 z"
       class="st4" />
    <path
       style="fill:#f6f9f9;stroke-width:0.20554824"
       inkscape:connector-curvature="0"
       id="path26"
       d="m 221.72386,46.755423 -1.70605,37.533108 44.06955,1.849935 0.0617,-40.986321 z"
       class="st4" />
    <path
       style="fill:#ffffff;stroke-width:0.20554824"
       inkscape:connector-curvature="0"
       id="path28"
       d="m 224.08766,48.95479 -1.39772,32.661615 38.43752,1.397728 0.16444,-35.272078 z"
       class="st5" />
    <g
       transform="matrix(0.20554823,0,0,0.20554823,150.72749,39.684564)"
       style="opacity:0.2"
       id="g34"
       class="st6">
      <path
         style="fill:#485f68"
         inkscape:connector-curvature="0"
         id="path30"
         d="m 454.4,124.9 -0.6,-0.6 c -0.2,-0.2 -0.4,-0.4 -0.6,-0.5 -2.3,-1.9 -5.1,-3 -7.9,-3.1 h -1.6 c -1.4,0.1 -2.9,0.5 -4.2,1.1 l -16.7,-9.4 9.9,16.4 c -0.5,1.3 -0.9,2.7 -0.9,4.2 v 1.6 c 0.2,2.8 1.3,5.5 3.2,7.7 0.2,0.2 0.4,0.4 0.5,0.6 0.2,0.2 0.4,0.4 0.6,0.5 2.2,2 5,3 7.8,3.2 3.6,0.2 7.3,-1 10.1,-3.8 2.8,-2.8 4,-6.5 3.8,-10.1 -0.2,-2.8 -1.3,-5.5 -3.4,-7.8 z m -5.2,13.2 c -1.3,1.3 -3.1,2 -4.9,1.9 -1.4,-0.1 -2.7,-0.6 -3.8,-1.6 l -0.3,-0.3 -0.3,-0.3 c -1,-1.1 -1.5,-2.4 -1.6,-3.8 v -0.8 c 0.1,-1.4 0.6,-2.7 1.5,-3.8 l 0.3,-0.3 0.3,-0.3 c 1.1,-1 2.4,-1.5 3.8,-1.6 h 0.8 c 1.4,0.1 2.7,0.6 3.8,1.5 l 0.3,0.3 0.3,0.3 c 1,1.1 1.5,2.4 1.6,3.8 0.2,1.8 -0.4,3.6 -1.8,5 z"
         class="st7" />
      <path
         style="fill:#485f68"
         inkscape:connector-curvature="0"
         id="path32"
         d="m 487.4,96.8 c -0.4,-0.5 -0.8,-0.9 -1.3,-1.3 l -1.3,-1.3 c -10.5,-9.7 -24.7,-15.3 -40,-14.7 -14.9,0.7 -28.1,7.1 -37.5,17 -9.3,9.7 -14.9,22.8 -15,37.2 -0.1,14.4 5.5,27.5 14.7,37.3 l 0.1,-0.1 10.9,-10.8 c -6.6,-6.9 -10.6,-16.2 -10.5,-26.4 0,-10.2 4.1,-19.5 10.8,-26.3 6.7,-6.9 16.1,-11.4 26.6,-11.7 10.7,-0.3 20.5,3.7 27.8,10.6 0.4,0.4 0.9,0.8 1.3,1.3 6.6,6.9 10.6,16.1 10.6,26.4 0,10.9 -4.6,20.7 -12,27.6 l 2.6,2.6 9.6,9.6 c 10.7,-9.9 17.5,-24 17.5,-39.8 -0.1,-14.4 -5.8,-27.5 -14.9,-37.2 z"
         class="st7" />
    </g>
    <path
       style="fill:#263840;stroke-width:0.20554824"
       inkscape:connector-curvature="0"
       id="path36"
       d="m 243.3681,64.453127 c -0.47277,-0.390542 -1.02776,-0.596091 -1.60328,-0.616646 h -0.32888 c -0.28777,0.02055 -0.57553,0.102774 -0.86331,0.226104 l -3.41211,-1.932153 2.01439,3.350436 c -0.10278,0.267212 -0.185,0.55498 -0.185,0.863302 v 0.328877 c 0.0411,0.554981 0.26721,1.109961 0.65776,1.562167 0.0411,0.04111 0.0617,0.08222 0.10277,0.123329 0.0411,0.04111 0.0822,0.08222 0.12334,0.102774 0.45219,0.390541 1.00718,0.616645 1.58272,0.657755 0.73996,0.04111 1.50049,-0.205548 2.05548,-0.781084 0.57553,-0.575535 0.82219,-1.336063 0.76052,-2.076037 -0.0411,-0.575536 -0.26721,-1.130515 -0.67831,-1.582722 l -0.12333,-0.123328 c -0.0206,-0.04111 -0.0617,-0.06166 -0.10276,-0.102774 z m -0.78109,1.151069 c 0.20555,0.226104 0.30832,0.493316 0.32888,0.781084 0.0206,0.369987 -0.10278,0.719418 -0.36999,1.007187 -0.26722,0.267212 -0.6372,0.411096 -1.00719,0.390541 -0.28777,-0.02055 -0.55498,-0.123329 -0.78109,-0.308323 l -0.0617,-0.06166 -0.0616,-0.06166 c -0.20555,-0.226103 -0.30833,-0.493316 -0.32889,-0.760528 v -0.164439 c 0.0206,-0.287768 0.12334,-0.554981 0.30833,-0.781084 l 0.0617,-0.06166 0.0617,-0.06166 c 0.2261,-0.205548 0.49331,-0.308322 0.78108,-0.328877 h 0.16444 c 0.28777,0.02055 0.55498,0.123329 0.78108,0.308321 l 0.0617,0.06166 c 0.0206,0 0.0411,0.02055 0.0617,0.04111 z" />
    <path
       style="fill:#62e8c2;stroke-width:0.20554824"
       inkscape:connector-curvature="0"
       id="path38"
       d="m 234.44729,59.35553 -0.47276,-0.472761 c -1.89104,1.993818 -3.06266,4.6865 -3.08323,7.625839 -0.0206,2.939341 1.13052,5.652577 3.00102,7.646395 l 0.0206,-0.02055 c -1.60328,-1.952708 -2.56935,-4.439841 -2.5488,-7.132523 0.0206,-2.959895 1.19219,-5.652576 3.08323,-7.646395 z"
       class="st9" />
    <path
       style="fill:#ff6e80;stroke-width:0.20554824"
       inkscape:connector-curvature="0"
       id="path40"
       d="m 247.84904,61.369903 c -0.0822,-0.08222 -0.18499,-0.164439 -0.26721,-0.246658 1.33607,1.397728 2.15825,3.288772 2.15825,5.405919 0,2.240476 -0.94552,4.234294 -2.44602,5.673131 l 0.53443,0.534426 c 1.52105,-1.418284 2.46658,-3.432656 2.46658,-5.673131 0,-2.261031 -0.92497,-4.275404 -2.44603,-5.693687 z"
       class="st10" />
    <path
       style="fill:#ff3849;stroke-width:0.20554824"
       inkscape:connector-curvature="0"
       id="path42"
       d="m 250.08952,58.615557 -0.26721,-0.267213 -0.0206,0.02055 c 0.10278,0.08222 0.20555,0.164439 0.28777,0.246659 z"
       class="st11" />
    <path
       style="fill:#f7e3a1;stroke-width:0.20554824"
       inkscape:connector-curvature="0"
       id="path44"
       d="m 242.15535,55.86121 c 2.87769,-0.123328 5.5498,0.822193 7.64639,2.528244 l 0.0206,-0.02055 c -2.13769,-1.993817 -5.05649,-3.124333 -8.18082,-2.980449 -3.04211,0.143884 -5.75534,1.479947 -7.6875,3.514874 l 0.47276,0.472762 c 1.95271,-2.034928 4.66594,-3.391547 7.72861,-3.514875 z"
       class="st12" />
    <path
       style="fill:#1ed3a3;stroke-width:0.20554824"
       inkscape:connector-curvature="0"
       id="path46"
       d="m 233.99509,66.508608 c 0,-2.096591 0.84276,-4.008189 2.19936,-5.405917 l -1.74716,-1.747161 c -1.91159,1.993818 -3.06266,4.6865 -3.08322,7.646395 -0.0206,2.713237 0.94553,5.20037 2.5488,7.132523 l 2.24048,-2.219921 c -1.33606,-1.397727 -2.15826,-3.309326 -2.15826,-5.405919 z"
       class="st13" />
    <path
       style="fill:#ff3849;stroke-width:0.20554824"
       inkscape:connector-curvature="0"
       id="path48"
       d="m 250.35673,58.882769 -2.50769,2.466579 c 1.5005,1.418283 2.44603,3.432656 2.44603,5.673132 0,2.240476 -0.94553,4.254847 -2.46658,5.67313 l 1.97325,1.952709 c 2.19938,-2.034928 3.57655,-4.933157 3.57655,-8.180819 0,-2.918785 -1.15107,-5.590913 -3.02156,-7.584731 z"
       class="st11" />
    <path
       style="fill:#ffd05b;stroke-width:0.20554824"
       inkscape:connector-curvature="0"
       id="path50"
       d="m 250.37728,58.862214 c -0.0822,-0.08222 -0.18499,-0.164438 -0.28776,-0.246657 0.10277,0.102774 0.18499,0.184993 0.28776,0.246657 z m -15.92999,0.493316 1.74716,1.747161 z"
       class="st14" />
    <path
       style="fill:#ffd05b;stroke-width:0.20554824"
       inkscape:connector-curvature="0"
       id="path52"
       d="m 250.35673,58.882769 c -0.0822,-0.08222 -0.16444,-0.184993 -0.26721,-0.267212 -0.10277,-0.08222 -0.18499,-0.16444 -0.28778,-0.246659 l -2.48713,2.46658 c 0.0822,0.08222 0.185,0.164438 0.26722,0.267213 0.10277,0.08222 0.18499,0.164439 0.26721,0.246657 z"
       class="st14" />
    <path
       style="fill:#ffd05b;stroke-width:0.20554824"
       inkscape:connector-curvature="0"
       id="path54"
       d="m 234.44729,59.35553 1.74716,1.747161 c 1.37719,-1.418284 3.28879,-2.343251 5.44703,-2.404915 2.17881,-0.06166 4.19319,0.760528 5.67313,2.158256 l 2.48713,-2.466578 c -2.09659,-1.685497 -4.7687,-2.651572 -7.64639,-2.528244 -3.06266,0.123329 -5.7759,1.479948 -7.70806,3.49432 z"
       class="st14" />
    <path
       style="fill:none;stroke:#263840;stroke-width:0.51746768;stroke-miterlimit:10"
       inkscape:connector-curvature="0"
       id="path56"
       d="m 233.52233,74.709984 -1.0894,1.089404 m -2.17882,-9.16745 h -1.50049 m 4.64538,-8.13971 -1.06885,-1.068851 m 9.16745,-2.774901 0.0206,-1.644386 m 8.73581,4.686499 1.27439,-1.253843 m 2.63103,9.88687 h 1.84993 m -5.5498,8.776909 1.25384,1.253844"
       class="st15" />
    <g
       transform="matrix(0.20554823,0,0,0.20554823,150.72749,39.684564)"
       id="g60">
      <path
         style="fill:none;stroke:#8499a0;stroke-width:2.51749992;stroke-miterlimit:10"
         inkscape:connector-curvature="0"
         id="path58"
         d="m 402.8,170.4 -5.3,5.3 m -10.6,-44.6 h -7.3 M 402.2,91.5 397,86.3 m 44.6,-13.5 0.1,-8 m 42.5,22.8 6.2,-6.1 m 12.8,48.1 h 9 m -27,42.7 6.1,6.1"
         class="st16" />
    </g>
    <g
       transform="matrix(0.20554823,0,0,0.20554823,150.72749,39.684564)"
       id="g68">
      <path
         style="fill:none;stroke:#263840;stroke-width:1.67840004;stroke-miterlimit:10"
         inkscape:connector-curvature="0"
         id="path62"
         d="m 396.7,165.1 -3,2.3 m -0.9,-8.5 -3.3,1.8 m 0.3,-8.5 -3.5,1.4 m 1.3,-8.4 -3.6,0.9 m 2.3,-8.1 -3.7,0.4 m 3.8,-15 -3.7,-0.5 m 5.1,-6.6 -3.6,-1.1 m 5.8,-5.9 -3.3,-1.5 m 6.5,-5.2 -3.2,-1.9 m 7.1,-4.3 -2.9,-2.3 m 13,-8.5 -2.3,-3.1 m 8.3,-1.3 -1.8,-3.4 m 8.4,-0.2 -1.5,-3.6 m 8.5,0.8 -1,-3.8 m 8.3,2 -0.4,-4 m 15.7,3.1 0.6,-4.1 m 7,5.2 1.1,-4 m 6.4,6.1 1.6,-3.9 m 5.5,7 2.2,-3.7 m 4.6,7.7 2.7,-3.4 m 8.9,14.1 3.6,-2.7 m 1.1,9.1 3.9,-2.2 m -0.1,9.3 4.1,-1.7 m -1.3,9.3 4.3,-1.2 m -2.6,9 4.5,-0.5 m -4.3,16.6 4.5,0.7 m -6.1,7.3 4.4,1.2 m -7,6.4 4.1,1.7 m -7.7,5.5 3.8,2.2 m -8.4,4.4 3.5,2.7"
         class="st17" />
      <g
         id="g66">
        <path
           style="fill:none;stroke:#8499a0;stroke-width:1.67840004;stroke-miterlimit:10"
           inkscape:connector-curvature="0"
           id="path64"
           d="m 396.7,165.1 -3,2.3 m -0.9,-8.5 -3.3,1.8 m 0.3,-8.5 -3.5,1.4 m 1.3,-8.4 -3.6,0.9 m 2.3,-8.1 -3.7,0.4 m 3.8,-15 -3.7,-0.5 m 5.1,-6.6 -3.6,-1.1 m 5.8,-5.9 -3.3,-1.5 m 6.5,-5.2 -3.2,-1.9 m 7.1,-4.3 -2.9,-2.3 m 13,-8.5 -2.3,-3.1 m 8.3,-1.3 -1.8,-3.4 m 8.4,-0.2 -1.5,-3.6 m 8.5,0.8 -1,-3.8 m 8.3,2 -0.4,-4 m 15.7,3.1 0.6,-4.1 m 7,5.2 1.1,-4 m 6.4,6.1 1.6,-3.9 m 5.5,7 2.2,-3.7 m 4.6,7.7 2.7,-3.4 m 8.9,14.1 3.6,-2.7 m 1.1,9.1 3.9,-2.2 m -0.1,9.3 4.1,-1.7 m -1.3,9.3 4.3,-1.2 m -2.6,9 4.5,-0.5 m -4.3,16.6 4.5,0.7 m -6.1,7.3 4.4,1.2 m -7,6.4 4.1,1.7 m -7.7,5.5 3.8,2.2 m -8.4,4.4 3.5,2.7"
           class="st18" />
      </g>
    </g>
    <g
       transform="matrix(0.20554823,0,0,0.20554823,150.72749,39.684564)"
       id="g72">
      <path
         style="fill:#8fa3aa"
         inkscape:connector-curvature="0"
         id="path70"
         d="m 451.9,121.6 c -0.9,-1 -2,-1.8 -3.2,-2.4 -1.2,-0.6 -2.4,-1.1 -3.8,-1.3 -0.7,-0.1 -1.3,-0.2 -2,-0.2 -0.7,0 -1.3,0 -2,0.1 -1.3,0.2 -2.6,0.6 -3.8,1.1 l -0.2,0.1 -0.2,-0.1 -16.8,-9 1.1,-1.2 9.4,16.6 0.1,0.2 -0.1,0.2 c -0.5,1.2 -0.9,2.4 -1,3.7 -0.1,0.6 0,1.3 0,1.9 0,0.6 0.1,1.3 0.3,1.9 0.3,1.3 0.7,2.5 1.4,3.7 0.7,1.1 1.5,2.2 2.5,3.1 -1,-0.8 -1.9,-1.9 -2.6,-3 -0.7,-1.1 -1.3,-2.4 -1.6,-3.7 -0.2,-0.7 -0.3,-1.3 -0.4,-2 0,-0.7 -0.1,-1.3 0,-2 0.1,-1.4 0.4,-2.7 0.9,-4 v 0.3 l -10.2,-16.1 -1.9,-3 3,1.8 16.4,9.8 h -0.3 c 1.3,-0.5 2.6,-0.9 4,-1 h 2.1 c 0.7,0 1.4,0.1 2,0.3 1.3,0.3 2.6,0.8 3.8,1.5 1.1,0.8 2.2,1.7 3.1,2.7 z" />
    </g>
    <g
       transform="matrix(0.20554823,0,0,0.20554823,150.72749,39.684564)"
       id="g80">
      <path
         style="fill:#1aa87f"
         inkscape:connector-curvature="0"
         id="path74"
         d="m 413.2,101.6 c -6.6,6.8 -10.7,16.1 -10.7,26.3 0,10.2 3.9,19.5 10.5,26.3 l -10.5,10.4 c 0.7,1 1.5,2 2.3,3 l 10.9,-10.8 c -6.6,-6.9 -10.5,-16.2 -10.5,-26.3 0,-10.2 4.1,-19.5 10.7,-26.3 z" />
      <path
         style="fill:#dd3146"
         inkscape:connector-curvature="0"
         id="path76"
         d="m 484.7,93.4 -0.2,0.2 c 7.6,9.3 12.3,21.2 12.2,34.3 0,15.7 -6.7,29.8 -17.4,39.8 l 2.6,2.6 c 10.7,-9.9 17.4,-24 17.4,-39.8 0.1,-14.4 -5.5,-27.4 -14.6,-37.1 z"
         class="st21" />
      <path
         style="fill:#f9b54c"
         inkscape:connector-curvature="0"
         id="path78"
         d="m 467.3,100.3 c -7.2,-6.8 -17,-10.8 -27.6,-10.5 -10.5,0.3 -19.8,4.8 -26.5,11.7 l 2.6,2.6 c 6.7,-6.9 16,-11.4 26.5,-11.7 10.3,-0.3 19.8,3.4 27,9.9 -0.2,-0.2 -0.4,-0.5 -0.7,-0.7 -0.4,-0.4 -0.9,-0.8 -1.3,-1.3 z"
         class="st22" />
    </g>
    <path
       style="opacity:0.2;fill:url(#SVGID_3_);stroke-width:0.20554824"
       inkscape:connector-curvature="0"
       id="path87"
       d="m 264.16957,45.008262 -42.32239,1.664941 -1.68548,34.799318 -0.12333,2.836565 44.06954,1.849935 v -3.103779 z" />
    <g
       transform="matrix(0.20554823,0,0,0.20554823,150.72749,39.684564)"
       id="g91">
      <path
         style="fill:#b3c1c6"
         inkscape:connector-curvature="0"
         id="path89"
         d="m 337.2,217.1 214.4,8.2 h -0.1 l 6.4,-0.6 0.2,1.6 -6.4,0.6 h -0.2 z"
         class="st3" />
    </g>
    <path
       style="opacity:0.2;fill:#2c3f49;stroke-width:0.24340989"
       inkscape:connector-curvature="0"
       id="path93"
       d="m 177.98092,39.978216 50.87267,-1.995961 1.41178,46.393924 -55.08367,-3.553783 1.97164,-40.11395 z" />
    <g
       transform="matrix(0.19377033,0,0,0.19377033,138.49051,41.622307)"
       id="g138">
      <path
         style="fill:#b3c1c6"
         inkscape:connector-curvature="0"
         id="path95"
         d="m 197.6,30.6 -2.8,4.2 -173.9,11.4 -7,147.8 -3.3,9.1 3.9,0.1 186.7,8.9 z"
         class="st3" />
      <path
         style="fill:#f6f9f9"
         inkscape:connector-curvature="0"
         id="path97"
         d="m 18.2,43.5 -7.1,147.8 183.4,6.6 0.3,-162 z"
         class="st4" />
      <path
         style="fill:#f6f9f9"
         inkscape:connector-curvature="0"
         id="path99"
         d="m 17.7,46.4 -7.1,156.7 184,7.7 0.3,-171.1 z"
         class="st4" />
      <path
         style="fill:#f6f9f9"
         inkscape:connector-curvature="0"
         id="path101"
         d="m 17.7,46.4 -7.1,156.7 184,7.7 0.3,-171.1 z"
         class="st4" />
      <path
         style="fill:#ffffff"
         inkscape:connector-curvature="0"
         id="path103"
         d="m 27.5,55.5 -5.8,136.4 160.4,5.8 0.7,-147.2 z"
         class="st5" />
      <path
         style="fill:#8499a0"
         inkscape:connector-curvature="0"
         id="path105"
         d="m 136.7,162.7 -80,-0.8 3.8,-84.1 H 56 l -0.3,7 -5.9,0.1 -0.2,4.9 5.9,-0.1 -0.5,12.2 h -5.9 l -0.3,4.8 h 5.9 l -0.5,12.1 h -5.9 l -0.2,4.9 5.9,-0.1 -0.6,12.1 h -5.8 l -0.2,4.8 h 5.8 l -0.5,12.1 h -5.9 l -0.2,4.7 5.9,0.1 -0.4,9.2 8.6,0.1 -0.3,6.4 h 4.5 l 0.3,-6.3 11.3,0.1 -0.3,6.4 h 4.5 l 0.3,-6.3 11.5,0.1 -0.3,6.4 4.5,0.1 0.4,-6.4 11.5,0.1 -0.3,6.4 4.6,0.1 0.3,-6.4 11.7,0.1 -0.3,6.5 h 4.7 l 0.3,-6.5 6.8,0.1 z" />
      <path
         style="fill:#485f68"
         inkscape:connector-curvature="0"
         id="path107"
         d="m 128.9,80.9 -3.8,72.7 11,0.1 3.8,-73 z"
         class="st7" />
      <path
         style="opacity:0.2;fill:#485f68"
         inkscape:connector-curvature="0"
         id="path109"
         d="m 69.7,156.7 h 10.5 l 1.6,-32.1 -10.7,0.1 z m 19.7,0.1 10.7,0.1 2.1,-41.6 H 91.4 Z m 44,-72.5 -3.8,72.8 11,0.1 3.9,-73.1 z m -24.1,72.7 10.9,0.1 3,-59.1 -10.9,0.2 z"
         class="st26" />
      <path
         style="fill:#ffd05b"
         inkscape:connector-curvature="0"
         id="path111"
         d="m 77.5,153.4 -12.2,-0.2 1.3,-28.9 h 12.1 z"
         class="st14" />
      <path
         style="fill:#1ed3a3"
         inkscape:connector-curvature="0"
         id="path113"
         d="m 97,153.6 -12.2,-0.2 1.6,-38.7 h 12.3 z"
         class="st13" />
      <path
         style="fill:#4e67b0"
         inkscape:connector-curvature="0"
         id="path115"
         d="m 116.8,153.8 -12.4,-0.1 2.3,-53.5 h 12.4 z"
         class="st27" />
      <path
         style="fill:#ff3849"
         inkscape:connector-curvature="0"
         id="path117"
         d="m 136.8,154 -12.5,-0.1 3.1,-73.1 12.5,-0.1 z"
         class="st11" />
      <path
         style="fill:#f7e3a1"
         inkscape:connector-curvature="0"
         id="path119"
         d="m 65.3,153.2 1.3,-28.9 h 12.1 l -8.8,3.4 z"
         class="st12" />
      <path
         style="fill:#62e8c2"
         inkscape:connector-curvature="0"
         id="path121"
         d="m 84.8,153.4 1.6,-38.7 h 12.3 l -9.4,3.6 z"
         class="st9" />
      <path
         style="fill:#5c7ccc"
         inkscape:connector-curvature="0"
         id="path123"
         d="m 104.4,153.7 2.3,-53.5 h 12.4 l -9,3.5 z"
         class="st28" />
      <path
         style="fill:#ff6e80"
         inkscape:connector-curvature="0"
         id="path125"
         d="m 124.3,153.9 3.1,-73.1 12.5,-0.1 -9.2,3.5 z"
         class="st10" />
      <linearGradient
         y2="206.411"
         x2="237.854"
         y1="88.001999"
         x1="53.772999"
         gradientUnits="userSpaceOnUse"
         id="SVGID_4_">
        <stop
           id="stop127"
           stop-opacity="0"
           stop-color="#253338"
           offset="0" />
        <stop
           id="stop129"
           stop-color="#253338"
           offset="1" />
      </linearGradient>
      <path
         style="opacity:0.2;fill:url(#SVGID_4_)"
         inkscape:connector-curvature="0"
         id="path132"
         d="m 194.8,39.8 v -3.9 l -176.6,7.6 -7.1,147.8 -0.5,11.8 183.9,7.7 0.1,-12.9 0.1,-79.2 z" />
      <g
         id="g136">
        <path
           style="fill:#b3c1c6"
           inkscape:connector-curvature="0"
           id="path134"
           d="m 10.6,203.1 184,6.9 -0.1,1.6 z"
           class="st3" />
      </g>
    </g>
    <path
       d="m 142.05589,48.384891 -0.0969,2.131474 34.29734,-1.337016 0.0194,-2.460883 z"
       id="path145"
       inkscape:connector-curvature="0"
       style="fill:url(#SVGID_5_);stroke-width:0.19377032" />
    <path
       class="st7"
       d="m 174.55117,46.776597 0.0193,-0.05813 -32.39839,1.530786 h -0.13565 v 0.135639 l -0.0775,2.053965 0.31003,0.01938 0.0582,-1.918325 z"
       id="path147"
       inkscape:connector-curvature="0"
       style="fill:#485f68;stroke-width:0.19377032" />
    <path
       class="st3"
       d="m 226.76026,36.37575 -0.77891,-1.071003 -49.33919,3.237351 -1.99596,42.255956 -0.92495,2.555804 0.92495,-0.97364 51.26212,3.18867 1.70387,-0.219069 z"
       id="path149"
       inkscape:connector-curvature="0"
       style="fill:#b3c1c6;stroke-width:0.24340989" />
    <path
       class="st4"
       d="m 175.86325,37.763187 -1.99596,42.255955 52.04103,1.874257 -0.1217,-46.393925 z"
       id="path151"
       inkscape:connector-curvature="0"
       style="fill:#f6f9f9;stroke-width:0.24340989" />
    <path
       class="st4"
       d="m 175.86325,37.763187 -2.16634,45.615012 52.18707,2.190689 -0.1217,-50.069414 z"
       id="path153"
       inkscape:connector-curvature="0"
       style="fill:#f6f9f9;stroke-width:0.24340989" />
    <path
       class="st4"
       d="m 175.86325,37.763187 -2.16634,45.615012 52.18707,2.190689 -0.1217,-50.069414 z"
       id="path155"
       inkscape:connector-curvature="0"
       style="fill:#f6f9f9;stroke-width:0.24340989" />
    <path
       class="st5"
       d="m 178.51642,41.487358 -1.65519,38.67783 45.51765,1.655187 0.19473,-41.769136 z"
       id="path157"
       inkscape:connector-curvature="0"
       style="fill:#ffffff;stroke-width:0.24340989" />
    <g
       transform="matrix(0.24340988,0,0,0.24340988,137.96433,31.093756)"
       style="opacity:0.2"
       id="g165"
       class="st6">
      <path
         style="fill:#485f68"
         inkscape:connector-curvature="0"
         id="path161"
         d="m 259.9,122.6 v 0.6 l 0.1,0.2 -28.5,-7.6 -18.5,-4.9 -3.3,-1 c -1.2,4.2 -2.1,8.4 -2.2,12.9 -0.2,9 1.9,17.6 5.9,25.2 l 0.1,-0.1 c 8.6,16.3 25.7,28.7 46.5,30.2 10.2,0.8 19.6,-1.1 28.1,-4.9 18.9,-8.7 32,-27.1 31.6,-48.9 0,-1 -0.1,-1.9 -0.1,-2.9 -0.9,-12.7 -6.2,-24 -14.3,-32.8 C 294.1,76.5 277.7,69.3 260,70 v 0.4 c -5.9,0.3 -11.5,1.4 -16.7,3.3 l 1.7,4.8 z"
         class="st7" />
      <path
         style="fill:#485f68"
         inkscape:connector-curvature="0"
         id="path163"
         d="M 249.6,114.3 235,70.5 233.3,65.8 c -16.3,6 -28.1,19.4 -32.7,35.9 z"
         class="st7" />
    </g>
    <g
       transform="matrix(0.24340988,0,0,0.24340988,137.96433,31.093756)"
       id="g169">
      <path
         style="fill:#b3c1c6"
         inkscape:connector-curvature="0"
         id="path167"
         d="m 146.9,214.7 214.4,7.9 h -0.2 l 7.1,-0.9 0.3,2.4 -7.1,0.8 h -0.2 z"
         class="st3" />
    </g>
    <path
       style="fill:#65c469;stroke-width:0.24340989"
       inkscape:connector-curvature="0"
       id="path171"
       d="m 200.61804,48.42454 v -1.265731 c -1.46046,0.07302 -2.84789,0.340773 -4.13796,0.803252 l 0.41379,1.168368 c 1.16837,-0.389456 2.40976,-0.657207 3.72417,-0.705889 z" />
    <path
       style="fill:#57ad5f;stroke-width:0.24340989"
       inkscape:connector-curvature="0"
       id="path173"
       d="m 189.44553,57.114273 -1.14403,-0.340774 c -0.29209,1.022322 -0.43813,2.044643 -0.46248,3.139987 -0.0487,2.19069 0.46248,4.284015 1.43612,6.13393 l 1.09535,-0.584183 10.27189,-5.37936 z"
       class="st32" />
    <path
       style="fill:#5c7ccc;stroke-width:0.24340989"
       inkscape:connector-curvature="0"
       id="path175"
       d="m 188.98306,59.937828 c 0.0243,-0.97364 0.24341,-1.922939 0.46247,-2.799214 L 188.3015,56.79784 c -0.29209,1.022321 -0.51115,2.044643 -0.5355,3.139988 -0.0487,2.190689 0.46248,4.284013 1.43612,6.133929 l 1.09535,-0.584184 c -0.85194,-1.72821 -1.33876,-3.626807 -1.31441,-5.549745 z"
       class="st28" />
    <path
       style="fill:#62e8c2;stroke-width:0.24340989"
       inkscape:connector-curvature="0"
       id="path177"
       d="m 194.45978,47.18315 -0.4138,-1.144027 c -3.96759,1.460459 -6.83982,4.722151 -7.95951,8.738415 l 1.071,0.267751 c 0.94931,-3.529444 3.69984,-6.572067 7.30231,-7.862139 z"
       class="st9" />
    <path
       style="fill:#f9b54c;stroke-width:0.24340989"
       inkscape:connector-curvature="0"
       id="path179"
       d="m 200.54502,47.085786 v 1.265731 c 6.86416,-0.267751 12.85204,4.989903 12.9494,11.82972 0.073,4.722152 -2.75052,8.811438 -6.81547,10.734376 l 0.73023,1.290073 c 4.60045,-2.117667 7.78911,-6.596408 7.69175,-11.902744 -0.21907,-7.764775 -6.91284,-13.55793 -14.55591,-13.217156 z"
       class="st22" />
    <path
       style="fill:#f7e3a1;stroke-width:0.24340989"
       inkscape:connector-curvature="0"
       id="path181"
       d="m 200.54502,47.085786 v 1.265731 c 6.86416,-0.267751 14.45855,5.647109 14.55591,11.951425 -0.14604,-7.667411 -6.91284,-13.55793 -14.55591,-13.217156 z"
       class="st12" />
    <path
       style="fill:#ff3849;stroke-width:0.24340989"
       inkscape:connector-curvature="0"
       id="path183"
       d="m 200.54502,72.035299 c -4.55176,-0.316434 -8.34896,-3.018283 -10.22321,-6.64509 l -1.09534,0.584184 c 2.06897,3.991921 6.25562,7.034546 11.34289,7.424001 2.48278,0.194728 4.77084,-0.26775 6.83982,-1.192708 l -0.73023,-1.290073 c -1.84991,0.876275 -3.96758,1.265732 -6.13393,1.119686 z"
       class="st11" />
    <path
       style="fill:#dd3146;stroke-width:0.24340989"
       inkscape:connector-curvature="0"
       id="path185"
       d="m 200.54502,72.035299 c -4.55176,-0.316434 -9.4443,-2.434099 -11.3429,-6.060906 2.06899,3.991921 6.25563,7.034546 11.3429,7.424001 2.48279,0.194728 4.77083,-0.26775 6.83982,-1.192708 l -0.73023,-1.290073 c -1.82557,0.876275 -3.94324,1.265732 -6.10959,1.119686 z"
       class="st21" />
    <path
       style="fill:#57ad5f;stroke-width:0.24340989"
       inkscape:connector-curvature="0"
       id="path187"
       d="m 200.5937,60.083873 0.0244,-11.659333 c -1.31442,0.04869 -2.55581,0.316433 -3.72418,0.705889 z"
       class="st32" />
    <path
       style="fill:#4e67b0;stroke-width:0.24340989"
       inkscape:connector-curvature="0"
       id="path189"
       d="m 189.10476,57.016909 c -0.2921,0.949299 -1.36309,5.403699 0.19472,9.030507 l 11.31856,-5.963543 z"
       class="st27" />
    <path
       style="fill:#1ed3a3;stroke-width:0.24340989"
       inkscape:connector-curvature="0"
       id="path191"
       d="m 194.45978,47.18315 c -3.57813,1.314413 -6.30432,4.284013 -7.30231,7.862139 l 10.85608,2.799214 z"
       class="st13" />
    <path
       style="fill:#f9d970;stroke-width:0.24340989"
       inkscape:connector-curvature="0"
       id="path193"
       d="m 206.65461,70.915613 c 4.06494,-1.922938 6.8885,-5.9392 6.81547,-10.734376 -0.0974,-6.864158 -6.0609,-12.097471 -12.92506,-11.82972 l -0.0244,11.659333 z" />
    <path
       style="fill:#ffd05b;stroke-width:0.24340989"
       inkscape:connector-curvature="0"
       id="path195"
       d="m 206.65461,70.915613 c 4.06494,-1.922938 8.495,-5.841836 8.42198,-10.637012 -0.0974,-6.864159 -7.59439,-13.387543 -14.48289,-13.119792 L 200.472,60.01085 Z"
       class="st14" />
    <path
       style="fill:#ff3849;stroke-width:0.24340989"
       inkscape:connector-curvature="0"
       id="path197"
       d="m 190.32181,65.463233 c 1.8986,3.651147 5.67145,6.352997 10.22321,6.645088 2.16635,0.146047 4.28402,-0.316433 6.10959,-1.192708 l -6.08525,-10.83174 z"
       class="st11" />
    <path
       style="opacity:0.2;fill:url(#SVGID_6_);stroke-width:0.24340989"
       inkscape:connector-curvature="0"
       id="path204"
       d="m 225.98135,35.304746 -50.11809,2.45844 -1.99597,42.255957 -0.14604,3.334716 52.18708,2.215029 V 81.8934 Z" />
    <path
       style="fill:url(#SVGID_7_);stroke-width:0.24340989"
       inkscape:connector-curvature="0"
       id="path211"
       d="m 175.91194,35.694202 -0.14605,3.091306 50.21546,-1.874257 v -3.675489 z" />
    <path
       style="fill:#223138;stroke-width:0.20554824"
       inkscape:connector-curvature="0"
       id="path213"
       d="m 225.05374,41.493387 0.65776,0.904412 0.0617,2.672128 -0.71942,-0.472761 z"
       class="st2" />
    <path
       style="fill:#485f68;stroke-width:0.24340989"
       inkscape:connector-curvature="0"
       id="path215"
       d="m 175.76589,38.761167 0.12172,-3.091307 v -0.170387 h 0.17037 l 49.92337,-2.263711 v 0.07302 l -49.89903,2.555805 0.17039,-0.170387 -0.0974,3.091305 z"
       class="st7" />
  </g>
</svg>
