<?xml version="1.0" encoding="UTF-8" standalone="no"?>
<!-- Created with Inkscape (http://www.inkscape.org/) -->

<svg
   xmlns:dc="http://purl.org/dc/elements/1.1/"
   xmlns:cc="http://creativecommons.org/ns#"
   xmlns:rdf="http://www.w3.org/1999/02/22-rdf-syntax-ns#"
   xmlns:svg="http://www.w3.org/2000/svg"
   xmlns="http://www.w3.org/2000/svg"
   xmlns:sodipodi="http://sodipodi.sourceforge.net/DTD/sodipodi-0.dtd"
   xmlns:inkscape="http://www.inkscape.org/namespaces/inkscape"
   width="200"
   height="150"
   viewBox="0 0 52.916665 39.687501"
   version="1.1"
   id="svg2034"
   inkscape:version="0.92.4 (5da689c313, 2019-01-14)"
   sodipodi:docname="2.click.svg">
  <defs
     id="defs2028" />
  <sodipodi:namedview
     id="base"
     pagecolor="#ffffff"
     bordercolor="#666666"
     borderopacity="1.0"
     inkscape:pageopacity="0.0"
     inkscape:pageshadow="2"
     inkscape:zoom="1.4"
     inkscape:cx="121.80251"
     inkscape:cy="143.76515"
     inkscape:document-units="mm"
     inkscape:current-layer="layer1"
     showgrid="false"
     units="px"
     inkscape:window-width="1920"
     inkscape:window-height="1027"
     inkscape:window-x="1358"
     inkscape:window-y="-7"
     inkscape:window-maximized="1" />
  <metadata
     id="metadata2031">
    <rdf:RDF>
      <cc:Work
         rdf:about="">
        <dc:format>image/svg+xml</dc:format>
        <dc:type
           rdf:resource="http://purl.org/dc/dcmitype/StillImage" />
        <dc:title></dc:title>
      </cc:Work>
    </rdf:RDF>
  </metadata>
  <g
     inkscape:label="Layer 1"
     inkscape:groupmode="layer"
     id="layer1"
     transform="translate(0,-257.31248)">
    <rect
       style="opacity:1;fill:#3f51b5;fill-opacity:1;fill-rule:nonzero;stroke:#3f51b5;stroke-width:1.5;stroke-linecap:butt;stroke-linejoin:round;stroke-miterlimit:4;stroke-dasharray:none;stroke-opacity:1;paint-order:markers fill stroke"
       id="rect2008"
       width="23.837255"
       height="5.2117558"
       x="13.972741"
       y="266.65988" />
    <text
       xml:space="preserve"
       style="font-style:normal;font-weight:normal;font-size:3.30894494px;line-height:1.25;font-family:sans-serif;letter-spacing:0px;word-spacing:0px;fill:#ffffff;fill-opacity:1;stroke:none;stroke-width:0.26458332"
       x="18.93364"
       y="270.46445"
       id="text2012"><tspan
         sodipodi:role="line"
         id="tspan2010"
         x="18.93364"
         y="270.46445"
         style="fill:#ffffff;stroke-width:0.26458332">SEARCH</tspan></text>
    <path
       style="fill:#3f51b5;fill-opacity:1;stroke-width:0.35235515"
       inkscape:connector-curvature="0"
       d="m 32.370687,280.79985 h -0.02464 c -0.336542,-0.002 -0.661699,0.12179 -0.912052,0.34678 -0.202646,-0.56081 -0.717622,-0.96394 -1.320804,-0.96394 -0.369692,0.002 -0.72281,0.15436 -0.978928,0.42114 -0.235508,-0.47678 -0.707964,-0.8002 -1.251189,-0.8002 h -0.02623 c -0.291142,-0.004 -0.575222,0.0902 -0.805541,0.26837 v -3.39902 c 0,-0.82139 -0.639502,-1.48958 -1.41737,-1.48958 -0.777003,0 -1.413191,0.66776 -1.413624,1.48858 l -0.0065,6.74383 -0.381655,-0.46353 c -0.33467,-0.41668 -0.827305,-0.67539 -1.360296,-0.71444 -0.522038,-0.0357 -1.035571,0.14585 -1.418956,0.50214 l -0.332074,0.27514 c -0.107089,0.0888 -0.137644,0.24012 -0.07351,0.3635 l 3.228648,6.20608 c 0.590356,1.13415 1.713558,1.84168 2.931308,1.84168 h 3.638553 v -0.003 c 1.844858,0 3.340636,-1.60085 3.342509,-3.56649 7.41e-4,-0.87948 -0.0026,-1.53498 -0.002,-2.06624 0.0019,-1.42141 4.23e-4,-1.94589 -0.0032,-3.51187 -0.0019,-0.81951 -0.636764,-1.47876 -1.412471,-1.47876 z m 0.820962,4.98861 c -6.35e-4,0.53141 -0.0015,1.18951 -0.0023,2.06899 -0.0016,1.64062 -1.240091,2.97843 -2.760802,2.97843 h -3.621116 c -0.9968,0 -1.919374,-0.58588 -2.40754,-1.52388 l -3.118822,-5.99305 0.153931,-0.12842 c 0.0039,-0.003 0.0076,-0.007 0.01139,-0.0102 0.264766,-0.2492 0.621054,-0.37718 0.983829,-0.3534 0.370845,0.0284 0.713009,0.20971 0.944914,0.50041 l 0.903548,1.09942 c 0.07898,0.0964 0.210141,0.13261 0.327463,0.0907 0.117321,-0.042 0.195727,-0.15321 0.195727,-0.27774 l 0.0054,-7.56738 c 2.91e-4,-0.49552 0.375026,-0.89865 0.827016,-0.89865 0.451991,0 0.826728,0.40357 0.826728,0.89938 v 4.56271 c 0,0.0159 -7.14e-4,0.0319 -7.14e-4,0.048 0,0.007 7.14e-4,0.014 7.14e-4,0.0207 v 1.9508 c 0,0.163 0.132167,0.29517 0.295177,0.29517 0.163011,0 0.295178,-0.13217 0.295178,-0.29517 v -2.00961 c 0,-0.47807 0.365224,-0.85166 0.80554,-0.85166 h 0.02623 c 0.452278,0 0.8286,0.3942 0.8286,0.89 v 1.78505 c 0,0.16301 0.132167,0.29518 0.295178,0.29518 0.163011,0 0.295178,-0.13217 0.295178,-0.29518 v -1.40051 c 0,-0.49595 0.358306,-0.89937 0.813034,-0.89937 0.452135,0 0.810441,0.40328 0.810441,0.89937 v 1.32124 c 0,0.16301 0.132167,0.29517 0.295179,0.29517 0.16301,0 0.295176,-0.13216 0.295176,-0.29517 v -0.71547 c 0,-0.49594 0.377909,-0.88409 0.830187,-0.88409 h 0.02464 c 0.451125,0 0.8188,0.39477 0.819953,0.88914 0.0036,1.56482 0.0028,2.08873 0.0011,3.50913 z m 0,0"
       id="path2-9" />
    <path
       style="fill:#3f51b5;fill-opacity:1;stroke-width:0.35235515"
       inkscape:connector-curvature="0"
       d="m 23.282594,276.8004 c 0.16301,0 0.295177,-0.13217 0.295177,-0.29518 0.0047,-1.12637 0.919258,-2.03684 2.045487,-2.03684 1.126373,0 2.040731,0.91047 2.045488,2.03684 0,0.16301 0.132166,0.29518 0.295177,0.29518 0.163011,0 0.295178,-0.13217 0.295178,-0.29518 -0.0054,-1.45196 -1.183881,-2.62604 -2.635843,-2.62604 -1.451817,0 -2.630365,1.17408 -2.635842,2.62604 0,0.16301 0.132167,0.29518 0.295178,0.29518 z m 0,0"
       id="path4" />
  </g>
</svg>
