<?xml version="1.0" encoding="UTF-8" standalone="no"?>
<!-- Created with Inkscape (http://www.inkscape.org/) -->

<svg
   xmlns:osb="http://www.openswatchbook.org/uri/2009/osb"
   xmlns:dc="http://purl.org/dc/elements/1.1/"
   xmlns:cc="http://creativecommons.org/ns#"
   xmlns:rdf="http://www.w3.org/1999/02/22-rdf-syntax-ns#"
   xmlns:svg="http://www.w3.org/2000/svg"
   xmlns="http://www.w3.org/2000/svg"
   xmlns:sodipodi="http://sodipodi.sourceforge.net/DTD/sodipodi-0.dtd"
   xmlns:inkscape="http://www.inkscape.org/namespaces/inkscape"
   width="300"
   height="200"
   viewBox="0 0 79.374998 52.916668"
   version="1.1"
   id="svg4788"
   inkscape:version="0.92.4 (5da689c313, 2019-01-14)"
   sodipodi:docname="about.svg"
   inkscape:export-filename="C:\Users\amery\Desktop\favicon2.png"
   inkscape:export-xdpi="96"
   inkscape:export-ydpi="96">
  <defs
     id="defs4782">
    <linearGradient
       id="linearGradient5429"
       osb:paint="solid">
      <stop
         style="stop-color:#ff8080;stop-opacity:1;"
         offset="0"
         id="stop5427" />
    </linearGradient>
  </defs>
  <sodipodi:namedview
     id="base"
     pagecolor="#ffffff"
     bordercolor="#666666"
     borderopacity="1.0"
     inkscape:pageopacity="0"
     inkscape:pageshadow="2"
     inkscape:zoom="1.4"
     inkscape:cx="88.298941"
     inkscape:cy="71.4848"
     inkscape:document-units="mm"
     inkscape:current-layer="layer1"
     showgrid="false"
     units="px"
     inkscape:window-width="1920"
     inkscape:window-height="1027"
     inkscape:window-x="1358"
     inkscape:window-y="-7"
     inkscape:window-maximized="1"
     showborder="true"
     inkscape:pagecheckerboard="false"
     inkscape:snap-grids="false" />
  <metadata
     id="metadata4785">
    <rdf:RDF>
      <cc:Work
         rdf:about="">
        <dc:format>image/svg+xml</dc:format>
        <dc:type
           rdf:resource="http://purl.org/dc/dcmitype/StillImage" />
        <dc:title></dc:title>
      </cc:Work>
    </rdf:RDF>
  </metadata>
  <g
     inkscape:label="Layer 1"
     inkscape:groupmode="layer"
     id="layer1"
     transform="translate(0,-244.08331)">
    <g
       transform="matrix(0.12795005,0,0,0.12795005,-1.8951578,251.2503)"
       id="g829"
       style="stroke-width:2.06786442">
      <path
         style="fill:#ffffff;stroke-width:2.06786442"
         inkscape:connector-curvature="0"
         id="path2"
         d="m 141,293 c -9.9,0 -18,-8.1 -18,-18 V 21 c 0,-9.9 8.1,-18 18,-18 h 369 c 9.9,0 18,8.1 18,18 v 254 c 0,9.9 -8.1,18 -18,18 z" />
      <path
         d="m 510,5 c 8.8,0 16,7.2 16,16 v 254 c 0,8.8 -7.2,16 -16,16 H 141 c -8.8,0 -16,-7.2 -16,-16 V 21 c 0,-8.8 7.2,-16 16,-16 h 369 m 0,-4 H 141 c -11,0 -20,9 -20,20 v 254 c 0,11 9,20 20,20 h 369 c 11,0 20,-9 20,-20 V 21 C 530,10 521,1 510,1 Z"
         id="path4"
         inkscape:connector-curvature="0"
         style="fill:#3f51b5;fill-opacity:1;stroke-width:2.06786442" />
      <path
         d="m 88,297 h 475 c 0,0 36,-5 36,-13 v -2 H 51 c 0,0 -2,10 37,15"
         id="path6"
         inkscape:connector-curvature="0"
         style="fill:#3f51b5;fill-opacity:1;stroke-width:2.06786442" />
      <path
         style="fill:#ffffff;stroke-width:2.06786442"
         inkscape:connector-curvature="0"
         id="path10"
         d="m 57,286 c -2.2,0 -4,-1.8 -4,-4 v -4 c 0,-2.2 1.8,-4 4,-4 h 536 c 2.2,0 4,1.8 4,4 v 4 c 0,2.2 -1.8,4 -4,4 z" />
      <g
         style="fill:#3f51b5;fill-opacity:1;stroke-width:2.06786442"
         id="g16">
        <path
           inkscape:connector-curvature="0"
           style="fill:#3f51b5;fill-opacity:1;stroke-width:2.06786442"
           id="path12"
           d="m 593,276 c 1.1,0 2,0.9 2,2 v 4 c 0,1.1 -0.9,2 -2,2 H 57 c -1.1,0 -2,-0.9 -2,-2 v -4 c 0,-1.1 0.9,-2 2,-2 h 536 m 0,-4 H 57 c -3.3,0 -6,2.7 -6,6 v 4 c 0,3.3 2.7,6 6,6 h 536 c 3.3,0 6,-2.7 6,-6 v -4 c 0,-3.3 -2.7,-6 -6,-6 z" />
        <path
           inkscape:connector-curvature="0"
           style="fill:#3f51b5;fill-opacity:1;stroke-width:2.06786442"
           id="path14"
           d="m 287,276 c 0,0 0,4 4,4 4,0 68,0 68,0 0,0 4,0 4,-4 v -2 h -76 v 2" />
      </g>
      <path
         inkscape:connector-curvature="0"
         style="fill:#ffffff;stroke:#3f51b5;stroke-width:2.06786442;stroke-opacity:1"
         id="path18"
         d="M 137,21 H 514 V 257 H 137 Z" />
      <circle
         style="fill:#3f51b5;fill-opacity:1;stroke-width:2.06786442"
         id="circle20"
         r="3"
         cy="13"
         cx="325" />
    </g>
    <g
       id="g5041"
       transform="matrix(0.62020655,0,0,0.62020655,14.797007,100.52328)"
       style="stroke-width:1.61236608">
      <path
         sodipodi:nodetypes="cccccccccccccccc"
         inkscape:connector-curvature="0"
         id="path2294"
         d="m 24.86301,270.01774 0.06994,10.52899 h -4.27e-4 v 6.80743 l -3.792318,2.34034 -4.26e-4,0.68936 4.219006,-2.60342 V 280.973 h 4.26e-4 l -0.07626,-10.69175 z m 18.273062,6.92108 -15.720013,9.36382 4.27e-4,0.67979 16.269085,-9.6906 z"
         style="opacity:1;fill:#3f51b5;fill-opacity:1;fill-rule:nonzero;stroke:none;stroke-width:0.94745237;stroke-linecap:butt;stroke-linejoin:miter;stroke-miterlimit:4;stroke-dasharray:none;stroke-opacity:0.97474748" />
      <path
         inkscape:connector-curvature="0"
         id="path2284"
         d="m 45.037643,281.48087 -0.427105,0.27057 -0.0071,8.13164 h -2.930604 l 4.16e-4,0.42626 h 3.356473 z"
         style="opacity:1;fill:#3f51b5;fill-opacity:1;fill-rule:nonzero;stroke:none;stroke-width:0.98705345;stroke-linecap:butt;stroke-linejoin:miter;stroke-miterlimit:4;stroke-dasharray:none;stroke-opacity:0.97474748" />
      <path
         inkscape:connector-curvature="0"
         id="path2286"
         d="m 49.881486,270.26334 -0.427105,0.271 -0.02081,19.34874 h -2.906472 l 4.15e-4,0.42626 h 3.332329 z"
         style="opacity:1;fill:#3f51b5;fill-opacity:1;fill-rule:nonzero;stroke:none;stroke-width:0.98705345;stroke-linecap:butt;stroke-linejoin:miter;stroke-miterlimit:4;stroke-dasharray:none;stroke-opacity:0.97474748" />
      <path
         inkscape:connector-curvature="0"
         id="path2288"
         d="m 54.725329,274.33124 -0.427102,0.27058 -0.0154,15.28126 h -2.917295 l 4.16e-4,0.42626 h 3.343151 z"
         style="opacity:1;fill:#3f51b5;fill-opacity:1;fill-rule:nonzero;stroke:none;stroke-width:0.98705345;stroke-linecap:butt;stroke-linejoin:miter;stroke-miterlimit:4;stroke-dasharray:none;stroke-opacity:0.97474748" />
      <path
         inkscape:connector-curvature="0"
         id="path2290"
         d="m 59.569172,261.57223 -0.427102,0.271 -0.02873,28.03985 h -2.890233 l 4.16e-4,0.42626 h 3.316092 z"
         style="opacity:1;fill:#3f51b5;fill-opacity:1;fill-rule:nonzero;stroke:none;stroke-width:0.98705345;stroke-linecap:butt;stroke-linejoin:miter;stroke-miterlimit:4;stroke-dasharray:none;stroke-opacity:0.97474748" />
      <path
         inkscape:connector-curvature="0"
         id="path2274"
         d="m 21.875362,251.57067 v 0.54283 l 18.611498,11.84985 0.425856,-0.27183 z m 37.890295,6.63677 -18.943274,11.9102 0.426689,0.2685 18.516585,-11.67833 z"
         style="opacity:1;fill:#3f51b5;fill-opacity:1;fill-rule:nonzero;stroke:none;stroke-width:0.99664187;stroke-linecap:butt;stroke-linejoin:miter;stroke-miterlimit:4;stroke-dasharray:none;stroke-opacity:0.97474748" />
      <path
         inkscape:connector-curvature="0"
         id="path2202"
         d="m 20.17045,258.18942 v -6.61895 l 19.463697,12.39289 19.278112,-12.29853 v 6.50595 l -19.36808,12.21536 z"
         style="opacity:1;fill:#3f51b5;fill-opacity:1;fill-rule:nonzero;stroke:none;stroke-width:0.99664187;stroke-linecap:butt;stroke-linejoin:miter;stroke-miterlimit:4;stroke-dasharray:none;stroke-opacity:0.97474748" />
      <path
         id="path2212"
         d="m 44.185223,280.62845 -3.372871,2.13894 0.0083,6.68924 h 3.356704 z"
         style="opacity:1;fill:#3f51b5;fill-opacity:1;fill-rule:nonzero;stroke:none;stroke-width:0.98705357;stroke-linecap:butt;stroke-linejoin:miter;stroke-miterlimit:4;stroke-dasharray:none;stroke-opacity:0.97474748"
         inkscape:connector-curvature="0" />
      <path
         id="path2214"
         d="m 49.029008,269.41064 -3.372871,2.14171 0.01889,17.90428 h 3.332461 z"
         style="opacity:1;fill:#3f51b5;fill-opacity:1;fill-rule:nonzero;stroke:none;stroke-width:0.98705357;stroke-linecap:butt;stroke-linejoin:miter;stroke-miterlimit:4;stroke-dasharray:none;stroke-opacity:0.97474748"
         inkscape:connector-curvature="0" />
      <path
         id="path2216"
         d="m 53.872794,273.4786 -3.372871,2.13903 0.01336,13.839 h 3.343236 z"
         style="opacity:1;fill:#3f51b5;fill-opacity:1;fill-rule:nonzero;stroke:none;stroke-width:0.98705357;stroke-linecap:butt;stroke-linejoin:miter;stroke-miterlimit:4;stroke-dasharray:none;stroke-opacity:0.97474748"
         inkscape:connector-curvature="0" />
      <path
         id="path2218"
         d="m 58.71658,260.71985 -3.372872,2.14175 0.02719,26.59503 h 3.316297 z"
         style="opacity:1;fill:#3f51b5;fill-opacity:1;fill-rule:nonzero;stroke:none;stroke-width:0.98705357;stroke-linecap:butt;stroke-linejoin:miter;stroke-miterlimit:4;stroke-dasharray:none;stroke-opacity:0.97474748"
         inkscape:connector-curvature="0" />
      <path
         sodipodi:nodetypes="ccccccccccc"
         inkscape:connector-curvature="0"
         id="path2224"
         d="m 20.303994,261.97714 -0.01679,27.5543 4.219045,-2.60351 v -6.80747 h 5.26e-4 l -0.07008,-10.52889 10.81121,6.78403 -8.688499,4.74842 0.0044,5.0058 16.269295,-9.69069 z"
         style="opacity:1;fill:#3f51b5;fill-opacity:1;fill-rule:nonzero;stroke:none;stroke-width:0.94745237;stroke-linecap:butt;stroke-linejoin:miter;stroke-miterlimit:4;stroke-dasharray:none;stroke-opacity:0.97474748" />
      <path
         inkscape:connector-curvature="0"
         id="path2303"
         d="m 59.765657,252.24629 -0.427104,0.271 -0.0067,6.46026 0.427104,-0.26974 z"
         style="opacity:1;fill:#3f51b5;fill-opacity:1;fill-rule:nonzero;stroke:none;stroke-width:0.98705345;stroke-linecap:butt;stroke-linejoin:miter;stroke-miterlimit:4;stroke-dasharray:none;stroke-opacity:0.97474748" />
    </g>
  </g>
</svg>
