<?xml version="1.0" encoding="UTF-8" standalone="no"?>
<svg
   xmlns:dc="http://purl.org/dc/elements/1.1/"
   xmlns:cc="http://creativecommons.org/ns#"
   xmlns:rdf="http://www.w3.org/1999/02/22-rdf-syntax-ns#"
   xmlns:svg="http://www.w3.org/2000/svg"
   xmlns="http://www.w3.org/2000/svg"
   xmlns:sodipodi="http://sodipodi.sourceforge.net/DTD/sodipodi-0.dtd"
   xmlns:inkscape="http://www.inkscape.org/namespaces/inkscape"
   width="500"
   height="500"
   version="1.2"
   viewBox="0 0 374.99977 375.00069"
   id="svg128"
   sodipodi:docname="node.svg"
   inkscape:version="0.92.4 (5da689c313, 2019-01-14)">
  <metadata
     id="metadata132">
    <rdf:RDF>
      <cc:Work
         rdf:about="">
        <dc:format>image/svg+xml</dc:format>
        <dc:type
           rdf:resource="http://purl.org/dc/dcmitype/StillImage" />
        <dc:title></dc:title>
      </cc:Work>
    </rdf:RDF>
  </metadata>
  <sodipodi:namedview
     pagecolor="#ffffff"
     bordercolor="#666666"
     borderopacity="1"
     objecttolerance="10"
     gridtolerance="10"
     guidetolerance="10"
     inkscape:pageopacity="1"
     inkscape:pageshadow="2"
     inkscape:window-width="1920"
     inkscape:window-height="1027"
     id="namedview130"
     showgrid="false"
     inkscape:zoom="1.0687699"
     inkscape:cx="93.835774"
     inkscape:cy="259.08735"
     inkscape:window-x="1358"
     inkscape:window-y="-8"
     inkscape:window-maximized="1"
     inkscape:current-layer="svg128" />
  <defs
     id="defs106">
    <linearGradient
       id="b"
       x1="-0.34799999"
       x2="1.251"
       gradientTransform="matrix(-38.064915,77.652126,-77.652126,-38.064915,258.72325,244.62943)"
       gradientUnits="userSpaceOnUse">
      <stop
         offset=".3"
         stop-color="#3E863D"
         id="stop72" />
      <stop
         offset=".5"
         stop-color="#55934F"
         id="stop74" />
      <stop
         offset=".8"
         stop-color="#5AAD45"
         id="stop76" />
    </linearGradient>
    <linearGradient
       id="d"
       x1="-0.456"
       x2="0.58200002"
       gradientTransform="matrix(106.8057,-78.916731,78.916731,106.8057,235.18824,285.39477)"
       gradientUnits="userSpaceOnUse">
      <stop
         offset=".57"
         stop-color="#3E863D"
         id="stop79" />
      <stop
         offset=".72"
         stop-color="#619857"
         id="stop81" />
      <stop
         offset="1"
         stop-color="#76AC64"
         id="stop83" />
    </linearGradient>
    <linearGradient
       id="f"
       x1="0.043000001"
       x2="0.98400003"
       gradientTransform="matrix(97.417,0,0,97.417,192.862,279.652)"
       gradientUnits="userSpaceOnUse">
      <stop
         offset=".16"
         stop-color="#6BBF47"
         id="stop86" />
      <stop
         offset=".38"
         stop-color="#79B461"
         id="stop88" />
      <stop
         offset=".47"
         stop-color="#75AC64"
         id="stop90" />
      <stop
         offset=".7"
         stop-color="#659E5A"
         id="stop92" />
      <stop
         offset=".9"
         stop-color="#3E863D"
         id="stop94" />
    </linearGradient>
    <clipPath
       id="a">
      <path
         d="m 239.03,226.605 -42.13,24.317 a 5.085,5.085 0 0 0 -2.546,4.406 v 48.668 c 0,1.817 0.968,3.496 2.546,4.406 l 42.133,24.336 a 5.1,5.1 0 0 0 5.09,0 l 42.126,-24.336 a 5.096,5.096 0 0 0 2.54,-4.406 v -48.668 c 0,-1.816 -0.97,-3.496 -2.55,-4.406 l -42.12,-24.317 a 5.123,5.123 0 0 0 -5.1,0"
         id="path97"
         inkscape:connector-curvature="0" />
    </clipPath>
    <clipPath
       id="c">
      <path
         d="m 195.398,307.086 c 0.403,0.523 0.907,0.976 1.5,1.316 l 36.14,20.875 6.02,3.46 c 0.9,0.52 1.926,0.74 2.934,0.665 0.336,-0.027 0.672,-0.09 1,-0.183 l 44.434,-81.36 c -0.34,-0.37 -0.738,-0.68 -1.184,-0.94 l -27.586,-15.93 -14.582,-8.39 a 5.318,5.318 0 0 0 -1.32,-0.53 z m 0,0"
         id="path100"
         inkscape:connector-curvature="0" />
    </clipPath>
    <clipPath
       id="e">
      <path
         d="m 241.066,225.953 a 5.14,5.14 0 0 0 -2.035,0.652 l -42.01,24.247 45.3,82.51 c 0.63,-0.09 1.25,-0.3 1.81,-0.624 l 42.13,-24.336 a 5.105,5.105 0 0 0 2.46,-3.476 l -46.18,-78.89 a 5.29,5.29 0 0 0 -1.03,-0.102 c -0.14,0 -0.28,0.007 -0.42,0.02"
         id="path103"
         inkscape:connector-curvature="0" />
    </clipPath>
  </defs>
  <path
     d="m 186.80126,291.51569 c -1.21009,0 -2.41189,-0.31744 -3.4728,-0.92829 l -11.05413,-6.54445 c -1.65103,-0.92332 -0.8454,-1.24988 -0.30086,-1.43803 2.20137,-0.77081 2.64811,-0.94486 4.99785,-2.27928 0.24699,-0.1409 0.57024,-0.0912 0.82303,0.058 l 8.49221,5.03929 c 0.30667,0.16577 0.7418,0.16577 1.02609,0 l 33.11183,-19.11285 c 0.30666,-0.17406 0.50558,-0.53046 0.50558,-0.89514 V 227.2058 c 0,-0.38126 -0.19892,-0.72108 -0.51222,-0.91171 l -33.09856,-19.09628 c -0.30666,-0.18234 -0.71279,-0.18234 -1.01946,0 l -33.09193,19.09628 c -0.32076,0.18234 -0.52465,0.53874 -0.52465,0.90342 v 38.20914 c 0,0.36469 0.19892,0.71279 0.51388,0.88685 l 9.06742,5.23821 c 4.92325,2.46163 7.93191,-0.43928 7.93191,-3.35676 v -37.71184 c 0,-0.53874 0.42271,-0.95316 0.96145,-0.95316 h 4.19389 c 0.52216,0 0.95315,0.41442 0.95315,0.95316 v 37.72841 c 0,6.56435 -3.58055,10.33553 -9.80508,10.33553 -1.9146,0 -3.42307,0 -7.63353,-2.07208 l -8.68616,-5.00614 a 7.0011403,7.0011403 0 0 1 -3.4728,-6.04218 v -38.20914 c 0,-2.48649 1.32613,-4.80722 3.4728,-6.03389 l 33.14498,-19.12114 c 2.09694,-1.18523 4.88181,-1.18523 6.96218,0 l 33.10353,19.12943 a 6.9853925,6.9853925 0 0 1 3.47281,6.03389 v 38.20914 c 0,2.4782 -1.33442,4.79064 -3.47281,6.03389 L 190.28733,290.57 a 6.9596987,6.9596987 0 0 1 -3.48938,0.92829"
     id="path108"
     style="fill:#689f63;stroke:#000000;stroke-width:1.05000193;stroke-miterlimit:4;stroke-dasharray:none;stroke-opacity:1"
     inkscape:connector-curvature="0" />
  <path
     d="m 197.02905,265.18703 c -14.48798,0 -17.52565,-6.65055 -17.52565,-12.22858 0,-0.53045 0.42768,-0.95316 0.95896,-0.95316 h 4.27677 c 0.47244,0 0.87028,0.34397 0.94487,0.8106 0.64649,4.358 2.56938,6.55606 11.33013,6.55606 6.97876,0 9.94598,-1.57644 9.94598,-5.27717 0,-2.1301 -0.84541,-3.71317 -11.68653,-4.77407 -9.06742,-0.89514 -14.67032,-2.89263 -14.67032,-10.1449 0,-6.68038 5.63606,-10.65878 15.07645,-10.65878 10.60075,0 15.85555,3.68002 16.51861,11.58707 a 0.96475995,0.96475995 0 0 1 -0.96144,1.04433 h -4.30164 c -0.44757,0 -0.83712,-0.31496 -0.92829,-0.74595 -1.03604,-4.58344 -3.53911,-6.05047 -10.34382,-6.05047 -7.61696,0 -8.50381,2.65226 -8.50381,4.64145 0,2.4119 1.04433,3.11641 11.32184,4.4757 10.17805,1.35099 15.01014,3.2573 15.01014,10.41012 0,7.21083 -6.01732,11.3467 -16.51033,11.3467 m 40.33095,-40.52157 h 1.11063 c 0.91172,0 1.08577,-0.6382 1.08577,-1.01118 0,-0.97802 -0.67135,-0.97802 -1.04433,-0.97802 h -1.14378 z m -1.351,-3.13298 h 2.46163 c 0.84541,0 2.50307,0 2.50307,1.88973 0,1.31784 -0.8454,1.59136 -1.35099,1.75712 0.98631,0.0663 1.05261,0.7128 1.18523,1.62451 0.0663,0.5719 0.17405,1.55821 0.37297,1.88974 h -1.51676 c -0.0414,-0.33153 -0.27351,-2.15496 -0.27351,-2.25442 -0.0995,-0.40613 -0.24037,-0.60505 -0.74595,-0.60505 h -1.25154 v 2.86776 h -1.38415 z m -2.95893,3.56397 c 0,2.96722 2.39533,5.37083 5.33768,5.37083 2.96722,0 5.36254,-2.45334 5.36254,-5.37083 0,-2.9755 -2.42848,-5.33767 -5.37083,-5.33767 -2.90091,0 -5.33767,2.32901 -5.33767,5.32938 m 11.73625,0.0249 c 0,3.51424 -2.87604,6.382 -6.382,6.382 -3.48109,0 -6.38201,-2.8346 -6.38201,-6.382 0,-3.61371 2.96722,-6.38201 6.38201,-6.38201 3.43965,0 6.37371,2.77659 6.37371,6.38201"
     id="path110"
     style="fill:#689f63;stroke:#000000;stroke-width:1.05000193;stroke-miterlimit:4;stroke-dasharray:none;stroke-opacity:1"
     inkscape:connector-curvature="0" />
  <path
     d="m 84.265683,142.01105 c 0,-1.52505 -0.803967,-2.92577 -2.120152,-3.68415 l -35.10599,-20.19863 a 4.0994009,4.0994009 0 0 0 -1.92952,-0.55531 h -0.363028 c -0.673011,0.0249 -1.336905,0.2072 -1.939466,0.55531 L 7.7031951,138.3269 a 4.2717979,4.2717979 0 0 0 -2.1234665,3.6883 l 0.077081,54.4045 c 0,0.75424 0.3895509,1.45875 1.0526161,1.83172 0.6464887,0.39784 1.4587436,0.39784 2.1052322,0 L 29.684637,186.29967 c 1.317842,-0.78408 2.121809,-2.16988 2.121809,-3.68001 v -25.41612 a 4.227041,4.227041 0 0 1 2.117665,-3.67173 l 8.885074,-5.1172 a 4.2154374,4.2154374 0 0 1 2.121809,-0.57024 c 0.726056,0 1.467032,0.18732 2.108547,0.56941 l 8.880931,5.11555 c 1.314527,0.75423 2.121808,2.15496 2.121808,3.67172 v 25.41446 c 0,1.50848 0.814742,2.90091 2.125953,3.68001 l 20.856718,11.94347 a 2.0720789,2.0720789 0 0 0 2.121809,0 2.1284395,2.1284395 0 0 0 1.050958,-1.83172 z M 249.92259,170.3372 c 0,0.37878 -0.20141,0.72937 -0.53045,0.91669 l -12.05784,6.95058 a 1.0625621,1.0625621 0 0 1 -1.05842,0 l -12.0595,-6.95058 c -0.33153,-0.18815 -0.53045,-0.53874 -0.53045,-0.91669 v -13.92105 c 0,-0.37961 0.19892,-0.72938 0.52216,-0.92001 l 12.05121,-6.96218 c 0.33153,-0.19063 0.73766,-0.19063 1.0692,0 l 12.05949,6.96218 c 0.33154,0.19063 0.53046,0.5404 0.53046,0.92001 z M 253.1799,67.228897 a 2.1284395,2.1284395 0 0 0 -2.10855,0.02238 c -0.64649,0.381263 -1.04598,1.077481 -1.04598,1.831718 v 53.874045 a 1.4819508,1.4819508 0 0 1 -2.22459,1.28469 l -8.7939,-5.06499 a 4.2336717,4.2336717 0 0 0 -4.23699,0 l -35.11759,20.26742 a 4.2311852,4.2311852 0 0 0 -2.12181,3.66344 v 40.54644 c 0,1.51676 0.80977,2.9092 2.12181,3.67172 l 35.11759,20.28151 c 1.31121,0.75424 2.92578,0.75424 4.24113,0 l 35.1176,-20.2898 c 1.30955,-0.76252 2.12181,-2.15496 2.12181,-3.67172 V 82.594605 A 4.2502483,4.2502483 0 0 0 274.0706,78.889728 Z M 370.12223,156.0498 a 4.2403023,4.2403023 0 0 0 2.10772,-3.66509 v -9.82663 c 0,-1.51179 -0.80397,-2.90671 -2.11103,-3.66758 l -34.89381,-20.25664 a 4.2378158,4.2378158 0 0 0 -4.25191,0 l -35.1093,20.26493 c -1.31785,0.76253 -2.12181,2.15496 -2.12181,3.67173 v 40.52986 c 0,1.52505 0.82054,2.93406 2.13838,3.6883 l 34.88552,19.88367 c 1.28469,0.73766 2.85947,0.74595 4.16074,0.0249 l 21.10205,-11.72796 c 0.66306,-0.37298 1.08577,-1.07748 1.08577,-1.84001 0,-0.76252 -0.40613,-1.47532 -1.06919,-1.84829 l -35.32481,-20.27322 c -0.66306,-0.37298 -1.06919,-1.07748 -1.06919,-1.83172 v -12.71428 c 0,-0.75921 0.39784,-1.45874 1.06091,-1.83669 l 10.9903,-6.34056 c 0.65478,-0.38126 1.45875,-0.38126 2.11352,0 l 10.9986,6.34056 c 0.65478,0.37298 1.0609,1.07748 1.0609,1.83172 v 9.99571 c 0,0.75423 0.40613,1.45874 1.06091,1.84 0.65477,0.37298 1.46703,0.37298 2.12181,-0.008 z m 0,0"
     id="path112"
     style="fill:#ffffff;fill-rule:evenodd;stroke:#000000;stroke-width:1.05000193;stroke-miterlimit:4;stroke-dasharray:none;stroke-opacity:1"
     inkscape:connector-curvature="0" />
  <path
     d="m 332.58528,154.15344 a 0.80396662,0.80396662 0 0 1 0.81225,0 l 6.7384,3.88722 c 0.25197,0.14587 0.40613,0.41441 0.40613,0.7045 v 7.78273 c 0,0.29009 -0.15416,0.55863 -0.40613,0.70451 l -6.7384,3.88722 a 0.80396662,0.80396662 0 0 1 -0.81225,0 l -6.73426,-3.88722 a 0.81142611,0.81142611 0 0 1 -0.41441,-0.70451 v -7.78273 c 0,-0.29009 0.14919,-0.55863 0.40612,-0.7045 z m 0,0"
     id="path114"
     style="fill:#689f63;fill-rule:evenodd;stroke:#646464;stroke-width:0.26916355;stroke-miterlimit:4;stroke-dasharray:none;stroke-opacity:1"
     inkscape:connector-curvature="0" />
  <g
     clip-path="url(#a)"
     transform="matrix(0.82883157,0,0,0.82883157,-59.322756,-68.981288)"
     id="g118">
    <path
       d="m 331.363,246.793 -118.715,-58.19 -60.87,124.174 118.712,58.193 z m 0,0"
       id="path116"
       inkscape:connector-curvature="0"
       style="fill:url(#b)" />
  </g>
  <g
     clip-path="url(#c)"
     transform="matrix(0.82883157,0,0,0.82883157,-59.322756,-68.981288)"
     id="g122">
    <path
       d="m 144.07,264.004 83.825,113.453 110.86,-81.906 -83.83,-113.45 z m 0,0"
       id="path120"
       inkscape:connector-curvature="0"
       style="fill:url(#d)" />
  </g>
  <g
     clip-path="url(#e)"
     transform="matrix(0.82883157,0,0,0.82883157,-59.322756,-68.981288)"
     id="g126">
    <path
       d="m 197.02,225.934 v 107.43 h 91.683 v -107.43 z m 0,0"
       id="path124"
       style="fill:url(#f);stroke:none;stroke-opacity:1"
       inkscape:connector-curvature="0" />
  </g>
</svg>
