<?xml version="1.0" encoding="UTF-8" standalone="no"?>
<!-- Created with Inkscape (http://www.inkscape.org/) -->

<svg
   xmlns:dc="http://purl.org/dc/elements/1.1/"
   xmlns:cc="http://creativecommons.org/ns#"
   xmlns:rdf="http://www.w3.org/1999/02/22-rdf-syntax-ns#"
   xmlns:svg="http://www.w3.org/2000/svg"
   xmlns="http://www.w3.org/2000/svg"
   xmlns:sodipodi="http://sodipodi.sourceforge.net/DTD/sodipodi-0.dtd"
   xmlns:inkscape="http://www.inkscape.org/namespaces/inkscape"
   width="200"
   height="150"
   viewBox="0 0 52.916666 39.687501"
   version="1.1"
   id="svg1249"
   inkscape:version="0.92.4 (5da689c313, 2019-01-14)"
   sodipodi:docname="1.svg">
  <defs
     id="defs1243" />
  <sodipodi:namedview
     id="base"
     pagecolor="#ffffff"
     bordercolor="#666666"
     borderopacity="1.0"
     inkscape:pageopacity="0.0"
     inkscape:pageshadow="2"
     inkscape:zoom="2.8"
     inkscape:cx="96.945056"
     inkscape:cy="21.807496"
     inkscape:document-units="mm"
     inkscape:current-layer="layer1"
     showgrid="false"
     units="px"
     inkscape:window-width="1920"
     inkscape:window-height="1027"
     inkscape:window-x="1358"
     inkscape:window-y="-7"
     inkscape:window-maximized="1" />
  <metadata
     id="metadata1246">
    <rdf:RDF>
      <cc:Work
         rdf:about="">
        <dc:format>image/svg+xml</dc:format>
        <dc:type
           rdf:resource="http://purl.org/dc/dcmitype/StillImage" />
        <dc:title />
      </cc:Work>
    </rdf:RDF>
  </metadata>
  <g
     inkscape:label="Layer 1"
     inkscape:groupmode="layer"
     id="layer1"
     transform="translate(0,-257.31248)">
    <g
       id="g1978"
       transform="matrix(2.3598756,0,0,2.4255267,-136.61945,-46.004072)"
       style="stroke-width:0.41797704">
      <path
         d="m 76.256696,129.48096 c 0.211666,0 0.396875,0.1852 0.396875,0.39687 0,0.21167 -0.185209,0.39688 -0.396875,0.39688 -0.211667,0 -0.396875,-0.18521 -0.396875,-0.39688 0,-0.21167 0.185208,-0.39687 0.396875,-0.39687 m 0,-0.26459 c -0.370417,0 -0.661459,0.29104 -0.661459,0.66146 0,0.37042 0.291042,0.66146 0.661459,0.66146 0.370416,0 0.661458,-0.29104 0.661458,-0.66146 0,-0.37042 -0.291042,-0.66146 -0.661458,-0.66146 z"
         id="path20"
         style="fill:#3f51b5;fill-opacity:1;stroke-width:0.11058972"
         inkscape:connector-curvature="0" />
      <path
         d="m 77.182737,131.06846 0.264584,-0.26459 -0.529167,-0.52916 h -0.264583 v 0.26458 z"
         id="path22"
         style="fill:#3f51b5;fill-opacity:1;stroke-width:0.11058972"
         inkscape:connector-curvature="0" />
    </g>
    <path
       style="fill:none;stroke:#3f51b5;stroke-width:0.5;stroke-linecap:butt;stroke-linejoin:miter;stroke-miterlimit:6.80000019;stroke-dasharray:none;stroke-opacity:1;paint-order:markers fill stroke"
       d="m 7.7478789,266.47446 v 0.003 a 3.0672263,3.1525556 0 0 0 -2.9810045,3.1494 3.0672263,3.1525556 0 0 0 3.0672325,3.15256 3.0672263,3.1525556 0 0 0 0.173481,-0.006 H 45.025578 a 3.0672263,3.1525556 0 0 0 0.124466,0.006 3.0672263,3.1525556 0 0 0 3.067236,-3.15256 3.0672263,3.1525556 0 0 0 -3.01052,-3.14966 v -0.003 H 45.15003 7.8340929 Z"
       id="path1962"
       inkscape:connector-curvature="0" />
    <text
       xml:space="preserve"
       style="font-style:normal;font-weight:normal;font-size:10.1312952px;line-height:1.25;font-family:sans-serif;letter-spacing:0px;word-spacing:0px;fill:#3f51b5;fill-opacity:1;stroke:none;stroke-width:0.26458332"
       x="9.0671616"
       y="260.04242"
       id="text1988"
       transform="scale(0.95728774,1.044618)"><tspan
         sodipodi:role="line"
         id="tspan1986"
         x="9.0671616"
         y="260.04242"
         style="font-style:italic;font-variant:normal;font-weight:normal;font-stretch:normal;font-size:3.37709856px;font-family:serif;-inkscape-font-specification:'serif Italic';fill:#3f51b5;fill-opacity:1;stroke-width:0.26458332">...</tspan></text>
    <path
       style="fill:#3f51b5;fill-opacity:1;stroke:#3f51b5;stroke-width:0.26458332px;stroke-linecap:butt;stroke-linejoin:miter;stroke-opacity:1"
       d="m 7.4514461,267.99027 v 3.49628 h 0.043297"
       id="path1990"
       inkscape:connector-curvature="0" />
    <path
       inkscape:connector-curvature="0"
       id="path2"
       d="m 31.027259,284.27485 -2.977412,-2.97757 2.12416,-1.22696 c 0.165987,-0.0959 0.262555,-0.27807 0.248752,-0.46925 -0.0138,-0.19123 -0.135609,-0.35772 -0.313635,-0.4287 l -9.472054,-3.77851 c -0.185682,-0.0741 -0.397711,-0.0305 -0.539112,0.11088 -0.141404,0.14146 -0.185078,0.35344 -0.110977,0.53913 l 3.77782,9.47336 c 0.07103,0.17803 0.237518,0.29989 0.428742,0.31369 0.191223,0.0139 0.373479,-0.0827 0.469293,-0.24875 l 1.226831,-2.1242 2.977211,2.97757 c 0.0938,0.0939 0.221146,0.14659 0.353784,0.14659 0.132737,0 0.259984,-0.0527 0.353783,-0.14659 l 1.452864,-1.4531 c 0.195354,-0.19541 0.195354,-0.51217 -5e-5,-0.70759 z"
       style="fill:none;stroke:#3f51b5;stroke-width:0.5;stroke-miterlimit:4;stroke-dasharray:none;stroke-opacity:1" />
  </g>
</svg>
